<svg height="65.333336" viewBox="0 0 514.66669 65.333336" width="514.66669" xmlns="http://www.w3.org/2000/svg" xmlns:xlink="http://www.w3.org/1999/xlink"><clipPath id="a"><path d="m0 0h384v47h-384z"/></clipPath><clipPath id="b"><path d="m0 0h16322.79v48.376h-16322.79z"/></clipPath><clipPath id="c"><path d="m0 0h100v10h-100z"/></clipPath><g clip-path="url(#a)" transform="matrix(1.3333333 0 0 -1.3333333 1.3279999668 63.9999997)"><g clip-path="url(#b)" transform="translate(1)"><text font-family="NimbusRomNo9L" font-size="9.9626" transform="matrix(1 0 0 -1 0 40.008)"><tspan x="0 5.728495 10.709795 16.249001 19.018604 25.932648 30.913948" y="0">Table3.</tspan></text><text font-family="NimbusRomNo9L" font-size="9.9626" transform="matrix(1 0 0 -1 36.493 40.008)"><tspan x="0 5.539206 9.9626 14.9439 19.367294 27.118196 34.032242 39.013542 46.485493 51.466793 56.448093 61.42939 66.41069 71.142929 78.335922 85.807877 89.683327 94.664627 99.645927 102.96347 107.38686 111.81026 117.07051 122.05181 124.82142 128.69687 133.12025 137.95212 142.78398 147.20738 150.52492 154.94832 162.42027 167.40157 174.87352 179.85481 184.83612 189.81741 194.79872 197.56831 202.54962 205.31923 208.63676 211.40637 216.38766 219.70522 227.17717 232.15846 239.63042 245.71756 250.69887 255.12225 259.54565 265.35385 270.89307 275.31644 280.29776 284.72113 288.59659 296.3475 300.7709" y="0">Schemebyunknownsource;discoveredongnuplot-infobyEdzerPebesma.</tspan></text><path d="m0 0h382.271" fill="none" stroke="#000" stroke-miterlimit="10" stroke-width=".797" transform="translate(0 34.03)"/><text font-family="LMSans10" font-size="8.9664" font-weight="bold" transform="matrix(1 0 0 -1 21.427 23.173)"><tspan x="0 5.750152 10.233353 15.542357 67.046257 72.52562 76.909294 81.940346 86.523071 94.29425 165.63182 171.66441 176.37178 178.66269 183.24542 186.86964 190.49385 246.83064 255.59799 260.30536 268.07922 292.87222 319.75708 346.10303" y="0">TypeSchemePaletteMaxnNBF</tspan></text><path d="m0 0h382.271" fill="none" stroke="#000" stroke-miterlimit="10" stroke-width=".498" transform="translate(0 17.871)"/><text font-family="NimbusRomNo9L" font-size="8.9664" transform="matrix(1 0 0 -1 5.978 5.8)"><tspan x="0 4.985318 8.9664 13.4496 17.9328 21.913881 26.397081 28.88974 31.382401 35.363483 62.979992 67.463196 71.856728" y="0">Sequentialbpy</tspan></text><g clip-path="url(#c)" transform="matrix(1.00008 0 0 1.00003 151.778 4.835)"><g transform="scale(.1)"><path d="m0 0h15.1992v100h-15.1992z"/><path d="m10.1016 0h15.1992v100h-15.1992z" fill="#00000a"/><path d="m20.1992 0h15.1992v100h-15.1992z" fill="#000015"/><path d="m30.3008 0h15.1992v100h-15.1992z" fill="#00001f"/><path d="m40.3984 0h15.2031v100h-15.2031z" fill="#00002a"/><path d="m50.5 0h15.1992v100h-15.1992z" fill="#000034"/><path d="m60.6016 0h15.1992v100h-15.1992z" fill="#00003e"/><path d="m70.6992 0h15.1992v100h-15.1992z" fill="#00004a"/><path d="m80.8008 0h15.1992v100h-15.1992z" fill="#000054"/><path d="m90.8984 0h15.2031v100h-15.2031z" fill="#00005f"/><path d="m101 0h15.1992v100h-15.1992z" fill="#000069"/><path d="m111.102 0h15.1992v100h-15.1992z" fill="#000073"/><path d="m121.199 0h15.1992v100h-15.1992z" fill="#00007e"/><path d="m131.301 0h15.1992v100h-15.1992z" fill="#008"/><path d="m141.398 0h15.2031v100h-15.2031z" fill="#000093"/><path d="m151.5 0h15.1992v100h-15.1992z" fill="#00009d"/><path d="m161.602 0h15.1992v100h-15.1992z" fill="#0000a8"/><path d="m171.699 0h15.1992v100h-15.1992z" fill="#0000b2"/><path d="m181.801 0h15.1992v100h-15.1992z" fill="#0000bc"/><path d="m191.898 0h15.2031v100h-15.2031z" fill="#0000c7"/><path d="m202 0h15.1992v100h-15.1992z" fill="#0000d1"/><path d="m212.102 0h15.1992v100h-15.1992z" fill="#0000dc"/><path d="m222.199 0h15.1992v100h-15.1992z" fill="#0000e6"/><path d="m232.301 0h15.1992v100h-15.1992z" fill="#0000f0"/><path d="m242.398 0h15.2031v100h-15.2031z" fill="#0000fc"/><g fill="#00f"><path d="m252.5 0h15.1992v100h-15.1992z"/><path d="m262.602 0h15.1992v100h-15.1992z"/><path d="m272.699 0h15.1992v100h-15.1992z"/></g><path d="m282.801 0h15.1992v100h-15.1992z" fill="#0f00ff"/><path d="m292.898 0h15.2031v100h-15.2031z" fill="#1c00ff"/><path d="m303 0h15.1992v100h-15.1992z" fill="#2600ff"/><path d="m313.102 0h15.1992v100h-15.1992z" fill="#2f00ff"/><path d="m323.199 0h15.1992v100h-15.1992z" fill="#3800ff"/><path d="m333.301 0h15.1992v100h-15.1992z" fill="#4100ff"/><path d="m343.398 0h15.2031v100h-15.2031z" fill="#4900ff"/><path d="m353.5 0h15.1992v100h-15.1992z" fill="#5200ff"/><path d="m363.602 0h15.1992v100h-15.1992z" fill="#5b00ff"/><path d="m373.699 0h15.1992v100h-15.1992z" fill="#6300ff"/><path d="m383.801 0h15.1992v100h-15.1992z" fill="#6c00ff"/><path d="m393.898 0h15.2031v100h-15.2031z" fill="#7400ff"/><path d="m404 0h15.1992v100h-15.1992z" fill="#7c00ff"/><path d="m414.102 0h15.1992v100h-15.1992z" fill="#8400ff"/><path d="m424.199 0h15.1992v100h-15.1992z" fill="#8c00fd"/><path d="m434.301 0h15.1992v100h-15.1992z" fill="#9500f6"/><path d="m444.398 0h15.2031v100h-15.2031z" fill="#9e00f1"/><path d="m454.5 0h15.1992v100h-15.1992z" fill="#a608ec"/><path d="m464.602 0h15.1992v100h-15.1992z" fill="#ae11e7"/><path d="m474.699 0h15.1992v100h-15.1992z" fill="#b618e2"/><path d="m484.801 0h15.1992v100h-15.1992z" fill="#be1fdc"/><path d="m494.898 0h15.2031v100h-15.2031z" fill="#c625d7"/><path d="m505.102 0h15.1992v100h-15.1992z" fill="#ce2bd2"/><path d="m515.199 0h15.1992v100h-15.1992z" fill="#d630cd"/><path d="m525.301 0h15.1992v100h-15.1992z" fill="#df36c8"/><path d="m535.398 0h15.2031v100h-15.2031z" fill="#e83cc2"/><path d="m545.5 0h15.1992v100h-15.1992z" fill="#f041bd"/><path d="m555.602 0h15.1992v100h-15.1992z" fill="#f846b8"/><path d="m565.699 0h15.1992v100h-15.1992z" fill="#ff4cb3"/><path d="m575.801 0h15.1992v100h-15.1992z" fill="#ff51ae"/><path d="m585.898 0h15.2031v100h-15.2031z" fill="#ff57a8"/><path d="m596 0h15.1992v100h-15.1992z" fill="#ff5ca3"/><path d="m606.102 0h15.1992v100h-15.1992z" fill="#ff619e"/><path d="m616.199 0h15.1992v100h-15.1992z" fill="#ff6698"/><path d="m626.301 0h15.1992v100h-15.1992z" fill="#ff6c93"/><path d="m636.398 0h15.2031v100h-15.2031z" fill="#ff728d"/><path d="m646.5 0h15.1992v100h-15.1992z" fill="#f78"/><path d="m656.602 0h15.1992v100h-15.1992z" fill="#ff7c83"/><path d="m666.699 0h15.1992v100h-15.1992z" fill="#ff817e"/><path d="m676.801 0h15.1992v100h-15.1992z" fill="#ff8679"/><path d="m686.898 0h15.2031v100h-15.2031z" fill="#ff8c72"/><path d="m697 0h15.1992v100h-15.1992z" fill="#ff916d"/><path d="m707.102 0h15.1992v100h-15.1992z" fill="#ff9668"/><path d="m717.199 0h15.1992v100h-15.1992z" fill="#ff9b63"/><path d="m727.301 0h15.1992v100h-15.1992z" fill="#ffa05e"/><path d="m737.398 0h15.2031v100h-15.2031z" fill="#ffa657"/><path d="m747.5 0h15.1992v100h-15.1992z" fill="#ffab52"/><path d="m757.602 0h15.1992v100h-15.1992z" fill="#ffb04c"/><path d="m767.699 0h15.1992v100h-15.1992z" fill="#ffb547"/><path d="m777.801 0h15.1992v100h-15.1992z" fill="#ffbb40"/><path d="m787.898 0h15.2031v100h-15.2031z" fill="#ffc03a"/><path d="m798 0h15.1992v100h-15.1992z" fill="#ffc534"/><path d="m808.102 0h15.1992v100h-15.1992z" fill="#ffca2e"/><path d="m818.199 0h15.1992v100h-15.1992z" fill="#ffcf28"/><path d="m828.301 0h15.1992v100h-15.1992z" fill="#ffd51f"/><path d="m838.398 0h15.2031v100h-15.2031z" fill="#ffda17"/><path d="m848.5 0h15.1992v100h-15.1992z" fill="#ffdf0d"/><path d="m858.602 0h15.1992v100h-15.1992z" fill="#ffe400"/><path d="m868.699 0h15.1992v100h-15.1992z" fill="#ffea00"/><path d="m878.801 0h15.1992v100h-15.1992z" fill="#fff000"/><path d="m888.898 0h15.2031v100h-15.2031z" fill="#fff500"/><path d="m899 0h15.1992v100h-15.1992z" fill="#fffa00"/><path d="m909.102 0h15.1992v100h-15.1992z" fill="#ff0"/><path d="m919.199 0h15.1992v100h-15.1992z" fill="#ff0"/><path d="m929.301 0h15.1992v100h-15.1992z" fill="#ffff32"/><path d="m939.398 0h15.2031v100h-15.2031z" fill="#ffff57"/><path d="m949.5 0h15.1992v100h-15.1992z" fill="#ffff7a"/><path d="m959.602 0h15.1992v100h-15.1992z" fill="#ffff9b"/><path d="m969.699 0h15.1992v100h-15.1992z" fill="#ffffbd"/><path d="m979.801 0h15.1992v100h-15.1992z" fill="#ffd"/><path d="m989.898 0h10.1016v100h-10.1016z" fill="#fff"/><path d="m0 0h1000v100h-1000z" style="fill:none;stroke:#d3d3d3;stroke-width:1.9;stroke-linecap:round;stroke-linejoin:round;stroke-miterlimit:10"/></g></g><text font-family="StandardSymL" font-size="8.9664" transform="matrix(1 0 0 -1 277.586 5.8)"><tspan x="0" y="0">∞</tspan></text><text font-family="NimbusRomNo9L" font-size="8.9664" transform="matrix(1 0 0 -1 315.004 5.8)"><tspan x="0 26.612276 52.399643" y="0">–––</tspan></text><path d="m0 0h382.271" fill="none" stroke="#000" stroke-miterlimit="10" stroke-width=".797" transform="translate(0 .398)"/></g></g></svg>