<svg height="296" viewBox="0 0 514.66669 296" width="514.66669" xmlns="http://www.w3.org/2000/svg" xmlns:xlink="http://www.w3.org/1999/xlink"><clipPath id="a"><path d="m0 0h384v220h-384z"/></clipPath><clipPath id="b"><path d="m0 0h16322.79v220.894h-16322.79z"/></clipPath><clipPath id="c"><path d="m0 0h100v10h-100z"/></clipPath><clipPath id="d"><path d="m0 0h10v10h-10z"/></clipPath><clipPath id="e"><path d="m0 0h100v10h-100z"/></clipPath><clipPath id="f"><path d="m0 0h10v10h-10z"/></clipPath><clipPath id="g"><path d="m0 0h100v10h-100z"/></clipPath><clipPath id="h"><path d="m0 0h10v10h-10z"/></clipPath><clipPath id="i"><path d="m0 0h100v10h-100z"/></clipPath><clipPath id="j"><path d="m0 0h100v10h-100z"/></clipPath><clipPath id="k"><path d="m0 0h100v10h-100z"/></clipPath><clipPath id="l"><path d="m0 0h100v10h-100z"/></clipPath><clipPath id="m"><path d="m0 0h100v10h-100z"/></clipPath><clipPath id="n"><path d="m0 0h100v10h-100z"/></clipPath><clipPath id="o"><path d="m0 0h100v10h-100z"/></clipPath><clipPath id="p"><path d="m0 0h100v10h-100z"/></clipPath><clipPath id="q"><path d="m0 0h100v10h-100z"/></clipPath><clipPath id="r"><path d="m0 0h10v10h-10z"/></clipPath><clipPath id="s"><path d="m0 0h100v10h-100z"/></clipPath><clipPath id="t"><path d="m0 0h10v10h-10z"/></clipPath><clipPath id="u"><path d="m0 0h100v10h-100z"/></clipPath><clipPath id="v"><path d="m0 0h10v10h-10z"/></clipPath><clipPath id="w"><path d="m0 0h100v10h-100z"/></clipPath><clipPath id="x"><path d="m0 0h10v10h-10z"/></clipPath><g clip-path="url(#a)" transform="matrix(1.3333333 0 0 -1.3333333 1.3279999668 294.6666667)"><g clip-path="url(#b)" transform="translate(1)"><text font-family="NimbusRomNo9L" font-size="9.9626" transform="matrix(1 0 0 -1 0 212.526)"><tspan x="0 5.728495 10.709795 16.249001 19.018604 25.932648 30.913948" y="0">Table2.</tspan></text><text font-family="NimbusRomNo9L" font-size="9.9626" transform="matrix(1 0 0 -1 36.493 212.526)"><tspan x="0 5.539206 9.9626 14.9439 19.367294 27.118196 31.541592 37.907692 42.888992 50.360943 55.75071 60.174103 65.155403 70.415657 75.705795 80.687096 85.94735 89.264893 94.246193 99.227493 104.20879 109.19009 114.99829 122.19129 124.96089 127.73049 135.20244 140.18375 144.60713 147.92468 155.67558 158.44519 162.32065 166.19609 168.9657 173.94699 181.41895 186.40025 189.71779 194.14119 199.12248 201.89209 206.31549 213.78743 216.55704 224.02899 229.01028 231.77989 235.65533 238.42494 241.74249 244.51208 249.29414 254.27544 257.04504 263.95908 266.7287 274.20065 281.39365 285.81702 291.07727 296.05859 301.03989 306.02118 311.00247" y="0">SchemesbyPaulTol(2018)withpermissiongrantedtodistributeinOct2018.</tspan></text><path d="m0 0h382.271" fill="none" stroke="#000" stroke-miterlimit="10" stroke-width=".797" transform="translate(0 206.548)"/><text font-family="LMSans10" font-size="8.9664" font-weight="bold" transform="matrix(1 0 0 -1 21.427 195.691)"><tspan x="0 5.750152 10.233353 15.542357 67.046257 72.52562 76.909294 81.940346 86.523071 94.29425 165.63182 171.66441 176.37178 178.66269 183.24542 186.86964 190.49385 246.83064 255.59799 260.30536 268.07922 292.87222 319.75708 346.10303" y="0">TypeSchemePaletteMaxnNBF</tspan></text><path d="m0 0h382.271" fill="none" stroke="#000" stroke-miterlimit="10" stroke-width=".498" transform="translate(0 190.389)"/><text font-family="NimbusRomNo9L" font-size="8.9664" transform="matrix(1 0 0 -1 5.978 178.318)"><tspan x="0 6.473741 8.74224 13.090944 17.072025 19.896442 24.379642 26.872301 31.355501 62.979992 68.960579 73.443779 79.42437" y="0">DivergingBuRd</tspan></text><g clip-path="url(#c)" transform="matrix(1.00008 0 0 1.00003 151.778 177.352)"><g transform="scale(.1)"><path d="m0 0h15.1992v100h-15.1992z" fill="#1e65ad"/><path d="m10.1016 0h15.1992v100h-15.1992z" fill="#2368ae"/><path d="m20.1992 0h15.1992v100h-15.1992z" fill="#276cb1"/><path d="m30.3008 0h15.1992v100h-15.1992z" fill="#296fb2"/><path d="m40.3984 0h15.2031v100h-15.2031z" fill="#2d73b4"/><path d="m50.5 0h15.1992v100h-15.1992z" fill="#3077b5"/><path d="m60.6016 0h15.1992v100h-15.1992z" fill="#337bb8"/><path d="m70.6992 0h15.1992v100h-15.1992z" fill="#367fba"/><path d="m80.8008 0h15.1992v100h-15.1992z" fill="#3882bb"/><path d="m90.8984 0h15.2031v100h-15.2031z" fill="#3b86be"/><path d="m101 0h15.1992v100h-15.1992z" fill="#3d8abf"/><path d="m111.102 0h15.1992v100h-15.1992z" fill="#3f8ec1"/><path d="m121.199 0h15.1992v100h-15.1992z" fill="#4292c3"/><path d="m131.301 0h15.1992v100h-15.1992z" fill="#4995c5"/><path d="m141.398 0h15.2031v100h-15.2031z" fill="#509ac7"/><path d="m151.5 0h15.1992v100h-15.1992z" fill="#579dc9"/><path d="m161.602 0h15.1992v100h-15.1992z" fill="#5ea1cc"/><path d="m171.699 0h15.1992v100h-15.1992z" fill="#65a6ce"/><path d="m181.801 0h15.1992v100h-15.1992z" fill="#6aaad0"/><path d="m191.898 0h15.2031v100h-15.2031z" fill="#70aed3"/><path d="m202 0h15.1992v100h-15.1992z" fill="#77b2d3"/><path d="m212.102 0h15.1992v100h-15.1992z" fill="#7db6d6"/><path d="m222.199 0h15.1992v100h-15.1992z" fill="#84bbd8"/><path d="m232.301 0h15.1992v100h-15.1992z" fill="#89beda"/><path d="m242.398 0h15.2031v100h-15.2031z" fill="#8fc3dd"/><path d="m252.5 0h15.1992v100h-15.1992z" fill="#94c5de"/><path d="m262.602 0h15.1992v100h-15.1992z" fill="#99c8e0"/><path d="m272.699 0h15.1992v100h-15.1992z" fill="#9ecae1"/><path d="m282.801 0h15.1992v100h-15.1992z" fill="#a4cde3"/><path d="m292.898 0h15.2031v100h-15.2031z" fill="#aad1e5"/><path d="m303 0h15.1992v100h-15.1992z" fill="#aed3e5"/><path d="m313.102 0h15.1992v100h-15.1992z" fill="#b3d6e7"/><path d="m323.199 0h15.1992v100h-15.1992z" fill="#b8d8e8"/><path d="m333.301 0h15.1992v100h-15.1992z" fill="#bedbea"/><path d="m343.398 0h15.2031v100h-15.2031z" fill="#c3deeb"/><path d="m353.5 0h15.1992v100h-15.1992z" fill="#c8e0ed"/><path d="m363.602 0h15.1992v100h-15.1992z" fill="#cde3ef"/><path d="m373.699 0h15.1992v100h-15.1992z" fill="#d1e5f0"/><path d="m383.801 0h15.1992v100h-15.1992z" fill="#d4e6f1"/><path d="m393.898 0h15.2031v100h-15.2031z" fill="#d8e8f1"/><path d="m404 0h15.1992v100h-15.1992z" fill="#dbe9f2"/><path d="m414.102 0h15.1992v100h-15.1992z" fill="#deebf2"/><path d="m424.199 0h15.1992v100h-15.1992z" fill="#e1ecf2"/><path d="m434.301 0h15.1992v100h-15.1992z" fill="#e4edf3"/><path d="m444.398 0h15.2031v100h-15.2031z" fill="#e8f0f3"/><path d="m454.5 0h15.1992v100h-15.1992z" fill="#eaf1f4"/><path d="m464.602 0h15.1992v100h-15.1992z" fill="#eef2f4"/><path d="m474.699 0h15.1992v100h-15.1992z" fill="#f0f3f6"/><path d="m484.801 0h15.1992v100h-15.1992z" fill="#f3f5f6"/><path d="m494.898 0h15.2031v100h-15.2031z" fill="#f7f7f7"/><path d="m505.102 0h15.1992v100h-15.1992z" fill="#f8f4f2"/><path d="m515.199 0h15.1992v100h-15.1992z" fill="#f8f2ee"/><path d="m525.301 0h15.1992v100h-15.1992z" fill="#f8f0eb"/><path d="m535.398 0h15.2031v100h-15.2031z" fill="#faede7"/><path d="m545.5 0h15.1992v100h-15.1992z" fill="#f9ebe3"/><path d="m555.602 0h15.1992v100h-15.1992z" fill="#fbe9df"/><path d="m565.699 0h15.1992v100h-15.1992z" fill="#fbe6db"/><path d="m575.801 0h15.1992v100h-15.1992z" fill="#fbe4d7"/><path d="m585.898 0h15.2031v100h-15.2031z" fill="#fce2d3"/><path d="m596 0h15.1992v100h-15.1992z" fill="#fce0d0"/><path d="m606.102 0h15.1992v100h-15.1992z" fill="#fdddcb"/><path d="m616.199 0h15.1992v100h-15.1992z" fill="#fddbc7"/><path d="m626.301 0h15.1992v100h-15.1992z" fill="#fdd7c2"/><path d="m636.398 0h15.2031v100h-15.2031z" fill="#fcd3bd"/><path d="m646.5 0h15.1992v100h-15.1992z" fill="#fccfb6"/><path d="m656.602 0h15.1992v100h-15.1992z" fill="#fccab0"/><path d="m666.699 0h15.1992v100h-15.1992z" fill="#fac5aa"/><path d="m676.801 0h15.1992v100h-15.1992z" fill="#fac1a5"/><path d="m686.898 0h15.2031v100h-15.2031z" fill="#f9bd9f"/><path d="m697 0h15.1992v100h-15.1992z" fill="#f8b99a"/><path d="m707.102 0h15.1992v100h-15.1992z" fill="#f7b494"/><path d="m717.199 0h15.1992v100h-15.1992z" fill="#f6af8e"/><path d="m727.301 0h15.1992v100h-15.1992z" fill="#f5ab89"/><path d="m737.398 0h15.2031v100h-15.2031z" fill="#f4a783"/><path d="m747.5 0h15.1992v100h-15.1992z" fill="#f3a27e"/><path d="m757.602 0h15.1992v100h-15.1992z" fill="#f09c7a"/><path d="m767.699 0h15.1992v100h-15.1992z" fill="#ee9776"/><path d="m777.801 0h15.1992v100h-15.1992z" fill="#ec9171"/><path d="m787.898 0h15.2031v100h-15.2031z" fill="#e98b6c"/><path d="m798 0h15.1992v100h-15.1992z" fill="#e78668"/><path d="m808.102 0h15.1992v100h-15.1992z" fill="#e48164"/><path d="m818.199 0h15.1992v100h-15.1992z" fill="#e27b60"/><path d="m828.301 0h15.1992v100h-15.1992z" fill="#df755b"/><path d="m838.398 0h15.2031v100h-15.2031z" fill="#dc6f57"/><path d="m848.5 0h15.1992v100h-15.1992z" fill="#da6a53"/><path d="m858.602 0h15.1992v100h-15.1992z" fill="#d7644f"/><path d="m868.699 0h15.1992v100h-15.1992z" fill="#d55f4c"/><path d="m878.801 0h15.1992v100h-15.1992z" fill="#d25a49"/><path d="m888.898 0h15.2031v100h-15.2031z" fill="#cf5446"/><path d="m899 0h15.1992v100h-15.1992z" fill="#cc4f43"/><path d="m909.102 0h15.1992v100h-15.1992z" fill="#c94a40"/><path d="m919.199 0h15.1992v100h-15.1992z" fill="#c7453e"/><path d="m929.301 0h15.1992v100h-15.1992z" fill="#c3403b"/><path d="m939.398 0h15.2031v100h-15.2031z" fill="#c03a37"/><path d="m949.5 0h15.1992v100h-15.1992z" fill="#be3535"/><path d="m959.602 0h15.1992v100h-15.1992z" fill="#ba2f32"/><path d="m969.699 0h15.1992v100h-15.1992z" fill="#b82930"/><path d="m979.801 0h15.1992v100h-15.1992z" fill="#b51f2d"/><path d="m989.898 0h10.1016v100h-10.1016z" fill="#b2182b"/><path d="m0 0h1000v100h-1000z" style="fill:none;stroke:#d3d3d3;stroke-width:1.9;stroke-linecap:round;stroke-linejoin:round;stroke-miterlimit:10"/></g></g><text font-family="StandardSymL" font-size="8.9664" transform="matrix(1 0 0 -1 277.586 178.318)"><tspan x="0" y="0">∞</tspan></text><g clip-path="url(#d)" transform="matrix(1.00003 0 0 1.00003 312.246 177.352)"><g transform="scale(.1)"><path d="m0 0h100v100h-100z" fill="#ffee97"/><path d="m0 0h100v100h-100z" style="fill:none;stroke:#d3d3d3;stroke-width:1.9;stroke-linecap:round;stroke-linejoin:round;stroke-miterlimit:10"/></g></g><text font-family="NimbusRomNo9L" font-size="8.9664" transform="matrix(1 0 0 -1 341.617 178.318)"><tspan x="0 25.787367" y="0">––</tspan><tspan x="-272.66101 -267.67569 -261.6951 -255.22136" y="12.323">PRGn</tspan></text><g clip-path="url(#e)" transform="matrix(1.00008 0 0 1.00003 151.778 165.03)"><g transform="scale(.1)"><path d="m0 0h15.1992v100h-15.1992z" fill="#762a84"/><path d="m10.1016 0h15.1992v100h-15.1992z" fill="#783087"/><path d="m20.1992 0h15.1992v100h-15.1992z" fill="#7c368a"/><path d="m30.3008 0h15.1992v100h-15.1992z" fill="#7e3b8d"/><path d="m40.3984 0h15.2031v100h-15.2031z" fill="#814190"/><path d="m50.5 0h15.1992v100h-15.1992z" fill="#844693"/><path d="m60.6016 0h15.1992v100h-15.1992z" fill="#874c97"/><path d="m70.6992 0h15.1992v100h-15.1992z" fill="#8a539b"/><path d="m80.8008 0h15.1992v100h-15.1992z" fill="#8d589d"/><path d="m90.8984 0h15.2031v100h-15.2031z" fill="#905ea1"/><path d="m101 0h15.1992v100h-15.1992z" fill="#9263a4"/><path d="m111.102 0h15.1992v100h-15.1992z" fill="#9569a7"/><path d="m121.199 0h15.1992v100h-15.1992z" fill="#986eab"/><path d="m131.301 0h15.1992v100h-15.1992z" fill="#9b73ae"/><path d="m141.398 0h15.2031v100h-15.2031z" fill="#9e77b1"/><path d="m151.5 0h15.1992v100h-15.1992z" fill="#a17bb3"/><path d="m161.602 0h15.1992v100h-15.1992z" fill="#a57fb6"/><path d="m171.699 0h15.1992v100h-15.1992z" fill="#a984ba"/><path d="m181.801 0h15.1992v100h-15.1992z" fill="#ac88bc"/><path d="m191.898 0h15.2031v100h-15.2031z" fill="#af8dbf"/><path d="m202 0h15.1992v100h-15.1992z" fill="#b291c2"/><path d="m212.102 0h15.1992v100h-15.1992z" fill="#b695c5"/><path d="m222.199 0h15.1992v100h-15.1992z" fill="#ba9ac9"/><path d="m232.301 0h15.1992v100h-15.1992z" fill="#bc9ecb"/><path d="m242.398 0h15.2031v100h-15.2031z" fill="#c0a2ce"/><path d="m252.5 0h15.1992v100h-15.1992z" fill="#c3a6d0"/><path d="m262.602 0h15.1992v100h-15.1992z" fill="#c6aad3"/><path d="m272.699 0h15.1992v100h-15.1992z" fill="#c9add3"/><path d="m282.801 0h15.1992v100h-15.1992z" fill="#ccb2d6"/><path d="m292.898 0h15.2031v100h-15.2031z" fill="#cfb6d8"/><path d="m303 0h15.1992v100h-15.1992z" fill="#d2b9d9"/><path d="m313.102 0h15.1992v100h-15.1992z" fill="#d5bddc"/><path d="m323.199 0h15.1992v100h-15.1992z" fill="#d8c1de"/><path d="m333.301 0h15.1992v100h-15.1992z" fill="#dbc5e0"/><path d="m343.398 0h15.2031v100h-15.2031z" fill="#dfc9e2"/><path d="m353.5 0h15.1992v100h-15.1992z" fill="#e1cde4"/><path d="m363.602 0h15.1992v100h-15.1992z" fill="#e4d1e6"/><path d="m373.699 0h15.1992v100h-15.1992z" fill="#e6d4e7"/><path d="m383.801 0h15.1992v100h-15.1992z" fill="#e8d7e9"/><path d="m393.898 0h15.2031v100h-15.2031z" fill="#eadaeb"/><path d="m404 0h15.1992v100h-15.1992z" fill="#ebddeb"/><path d="m414.102 0h15.1992v100h-15.1992z" fill="#ece0ed"/><path d="m424.199 0h15.1992v100h-15.1992z" fill="#ede2ee"/><path d="m434.301 0h15.1992v100h-15.1992z" fill="#efe5ef"/><path d="m444.398 0h15.2031v100h-15.2031z" fill="#f1e9f1"/><path d="m454.5 0h15.1992v100h-15.1992z" fill="#f2ebf2"/><path d="m464.602 0h15.1992v100h-15.1992z" fill="#f3eef3"/><path d="m474.699 0h15.1992v100h-15.1992z" fill="#f4f0f4"/><path d="m484.801 0h15.1992v100h-15.1992z" fill="#f6f4f6"/><path d="m494.898 0h15.2031v100h-15.2031z" fill="#f7f7f7"/><path d="m505.102 0h15.1992v100h-15.1992z" fill="#f4f6f4"/><path d="m515.199 0h15.1992v100h-15.1992z" fill="#f1f6f0"/><path d="m525.301 0h15.1992v100h-15.1992z" fill="#f0f5ee"/><path d="m535.398 0h15.2031v100h-15.2031z" fill="#edf4eb"/><path d="m545.5 0h15.1992v100h-15.1992z" fill="#ebf3e8"/><path d="m555.602 0h15.1992v100h-15.1992z" fill="#e8f3e5"/><path d="m565.699 0h15.1992v100h-15.1992z" fill="#e5f2e2"/><path d="m575.801 0h15.1992v100h-15.1992z" fill="#e3f2df"/><path d="m585.898 0h15.2031v100h-15.2031z" fill="#e0f2dc"/><path d="m596 0h15.1992v100h-15.1992z" fill="#dff1d9"/><path d="m606.102 0h15.1992v100h-15.1992z" fill="#dcf1d5"/><path d="m616.199 0h15.1992v100h-15.1992z" fill="#d9f0d2"/><path d="m626.301 0h15.1992v100h-15.1992z" fill="#d6eece"/><path d="m636.398 0h15.2031v100h-15.2031z" fill="#d2ebca"/><path d="m646.5 0h15.1992v100h-15.1992z" fill="#cfe9c6"/><path d="m656.602 0h15.1992v100h-15.1992z" fill="#cbe7c1"/><path d="m666.699 0h15.1992v100h-15.1992z" fill="#c7e4bc"/><path d="m676.801 0h15.1992v100h-15.1992z" fill="#c3e2b8"/><path d="m686.898 0h15.2031v100h-15.2031z" fill="#c0dfb4"/><path d="m697 0h15.1992v100h-15.1992z" fill="#bcddb0"/><path d="m707.102 0h15.1992v100h-15.1992z" fill="#b8dbac"/><path d="m717.199 0h15.1992v100h-15.1992z" fill="#b4d8a7"/><path d="m727.301 0h15.1992v100h-15.1992z" fill="#b2d6a3"/><path d="m737.398 0h15.2031v100h-15.2031z" fill="#aed39e"/><path d="m747.5 0h15.1992v100h-15.1992z" fill="#a9d19a"/><path d="m757.602 0h15.1992v100h-15.1992z" fill="#a3ce95"/><path d="m767.699 0h15.1992v100h-15.1992z" fill="#9dcc90"/><path d="m777.801 0h15.1992v100h-15.1992z" fill="#96c88a"/><path d="m787.898 0h15.2031v100h-15.2031z" fill="#8fc586"/><path d="m798 0h15.1992v100h-15.1992z" fill="#89c281"/><path d="m808.102 0h15.1992v100h-15.1992z" fill="#82bf7c"/><path d="m818.199 0h15.1992v100h-15.1992z" fill="#7cbc77"/><path d="m828.301 0h15.1992v100h-15.1992z" fill="#75b971"/><path d="m838.398 0h15.2031v100h-15.2031z" fill="#6eb66c"/><path d="m848.5 0h15.1992v100h-15.1992z" fill="#67b367"/><path d="m858.602 0h15.1992v100h-15.1992z" fill="#60b062"/><path d="m868.699 0h15.1992v100h-15.1992z" fill="#5aad5e"/><path d="m878.801 0h15.1992v100h-15.1992z" fill="#56a85a"/><path d="m888.898 0h15.2031v100h-15.2031z" fill="#50a356"/><path d="m899 0h15.1992v100h-15.1992z" fill="#4c9f54"/><path d="m909.102 0h15.1992v100h-15.1992z" fill="#479a4f"/><path d="m919.199 0h15.1992v100h-15.1992z" fill="#42964c"/><path d="m929.301 0h15.1992v100h-15.1992z" fill="#3e9249"/><path d="m939.398 0h15.2031v100h-15.2031z" fill="#388d45"/><path d="m949.5 0h15.1992v100h-15.1992z" fill="#338942"/><path d="m959.602 0h15.1992v100h-15.1992z" fill="#2f843e"/><path d="m969.699 0h15.1992v100h-15.1992z" fill="#2a803b"/><path d="m979.801 0h15.1992v100h-15.1992z" fill="#237c38"/><path d="m989.898 0h10.1016v100h-10.1016z" fill="#1c7835"/><path d="m0 0h1000v100h-1000z" style="fill:none;stroke:#d3d3d3;stroke-width:1.9;stroke-linecap:round;stroke-linejoin:round;stroke-miterlimit:10"/></g></g><text font-family="StandardSymL" font-size="8.9664" transform="matrix(1 0 0 -1 277.586 165.995)"><tspan x="0" y="0">∞</tspan></text><g clip-path="url(#f)" transform="matrix(1.00003 0 0 1.00003 312.246 165.03)"><g transform="scale(.1)"><path d="m0 0h100v100h-100z" fill="#ffee97"/><path d="m0 0h100v100h-100z" style="fill:none;stroke:#d3d3d3;stroke-width:1.9;stroke-linecap:round;stroke-linejoin:round;stroke-miterlimit:10"/></g></g><text font-family="NimbusRomNo9L" font-size="8.9664" transform="matrix(1 0 0 -1 341.617 165.995)"><tspan x="0 25.787367" y="0">––</tspan><tspan x="-272.66101 -269.17307 -264.68988 -260.20667 -256.71875 -252.73766" y="12.323">sunset</tspan></text><g clip-path="url(#g)" transform="matrix(1.00008 0 0 1.00003 151.778 152.707)"><g transform="scale(.1)"><path d="m0 0h15.1992v100h-15.1992z" fill="#354a9a"/><path d="m10.1016 0h15.1992v100h-15.1992z" fill="#384f9d"/><path d="m20.1992 0h15.1992v100h-15.1992z" fill="#3b53a1"/><path d="m30.3008 0h15.1992v100h-15.1992z" fill="#3c58a3"/><path d="m40.3984 0h15.2031v100h-15.2031z" fill="#3e5da6"/><path d="m50.5 0h15.1992v100h-15.1992z" fill="#3f61a9"/><path d="m60.6016 0h15.1992v100h-15.1992z" fill="#4267ac"/><path d="m70.6992 0h15.1992v100h-15.1992z" fill="#446cb0"/><path d="m80.8008 0h15.1992v100h-15.1992z" fill="#4671b2"/><path d="m90.8984 0h15.2031v100h-15.2031z" fill="#4876b5"/><path d="m101 0h15.1992v100h-15.1992z" fill="#4a7bb8"/><path d="m111.102 0h15.1992v100h-15.1992z" fill="#4e80ba"/><path d="m121.199 0h15.1992v100h-15.1992z" fill="#5284bd"/><path d="m131.301 0h15.1992v100h-15.1992z" fill="#5688bf"/><path d="m141.398 0h15.2031v100h-15.2031z" fill="#5a8dc1"/><path d="m151.5 0h15.1992v100h-15.1992z" fill="#5d91c3"/><path d="m161.602 0h15.1992v100h-15.1992z" fill="#6195c6"/><path d="m171.699 0h15.1992v100h-15.1992z" fill="#659ac8"/><path d="m181.801 0h15.1992v100h-15.1992z" fill="#689eca"/><path d="m191.898 0h15.2031v100h-15.2031z" fill="#6ca3cc"/><path d="m202 0h15.1992v100h-15.1992z" fill="#6fa7ce"/><path d="m212.102 0h15.1992v100h-15.1992z" fill="#73aad1"/><path d="m222.199 0h15.1992v100h-15.1992z" fill="#79afd3"/><path d="m232.301 0h15.1992v100h-15.1992z" fill="#7db2d3"/><path d="m242.398 0h15.2031v100h-15.2031z" fill="#81b6d6"/><path d="m252.5 0h15.1992v100h-15.1992z" fill="#85b9d7"/><path d="m262.602 0h15.1992v100h-15.1992z" fill="#89bdda"/><path d="m272.699 0h15.1992v100h-15.1992z" fill="#8dc0db"/><path d="m282.801 0h15.1992v100h-15.1992z" fill="#92c4de"/><path d="m292.898 0h15.2031v100h-15.2031z" fill="#96c8e0"/><path d="m303 0h15.1992v100h-15.1992z" fill="#9acbe1"/><path d="m313.102 0h15.1992v100h-15.1992z" fill="#9ecee3"/><path d="m323.199 0h15.1992v100h-15.1992z" fill="#a2d0e4"/><path d="m333.301 0h15.1992v100h-15.1992z" fill="#a7d3e5"/><path d="m343.398 0h15.2031v100h-15.2031z" fill="#acd6e7"/><path d="m353.5 0h15.1992v100h-15.1992z" fill="#b0d8e9"/><path d="m363.602 0h15.1992v100h-15.1992z" fill="#b4dbea"/><path d="m373.699 0h15.1992v100h-15.1992z" fill="#b8ddeb"/><path d="m383.801 0h15.1992v100h-15.1992z" fill="#bce0ed"/><path d="m393.898 0h15.2031v100h-15.2031z" fill="#c1e3ee"/><path d="m404 0h15.1992v100h-15.1992z" fill="#c5e4ec"/><path d="m414.102 0h15.1992v100h-15.1992z" fill="#cae5e8"/><path d="m424.199 0h15.1992v100h-15.1992z" fill="#cee5e5"/><path d="m434.301 0h15.1992v100h-15.1992z" fill="#d2e6e1"/><path d="m444.398 0h15.2031v100h-15.2031z" fill="#d7e7dd"/><path d="m454.5 0h15.1992v100h-15.1992z" fill="#dae8da"/><path d="m464.602 0h15.1992v100h-15.1992z" fill="#dfe9d6"/><path d="m474.699 0h15.1992v100h-15.1992z" fill="#e2ead3"/><path d="m484.801 0h15.1992v100h-15.1992z" fill="#e6ebce"/><path d="m494.898 0h15.2031v100h-15.2031z" fill="#eaebcb"/><path d="m505.102 0h15.1992v100h-15.1992z" fill="#eceac4"/><path d="m515.199 0h15.1992v100h-15.1992z" fill="#efe7bd"/><path d="m525.301 0h15.1992v100h-15.1992z" fill="#f1e6b7"/><path d="m535.398 0h15.2031v100h-15.2031z" fill="#f3e4b0"/><path d="m545.5 0h15.1992v100h-15.1992z" fill="#f6e3aa"/><path d="m555.602 0h15.1992v100h-15.1992z" fill="#f8e0a3"/><path d="m565.699 0h15.1992v100h-15.1992z" fill="#f9df9b"/><path d="m575.801 0h15.1992v100h-15.1992z" fill="#fbdd94"/><path d="m585.898 0h15.2031v100h-15.2031z" fill="#fedb8e"/><path d="m596 0h15.1992v100h-15.1992z" fill="#ffd988"/><path d="m606.102 0h15.1992v100h-15.1992z" fill="#ffd584"/><path d="m616.199 0h15.1992v100h-15.1992z" fill="#ffd080"/><path d="m626.301 0h15.1992v100h-15.1992z" fill="#ffcd7c"/><path d="m636.398 0h15.2031v100h-15.2031z" fill="#ffc978"/><path d="m646.5 0h15.1992v100h-15.1992z" fill="#ffc575"/><path d="m656.602 0h15.1992v100h-15.1992z" fill="#ffc171"/><path d="m666.699 0h15.1992v100h-15.1992z" fill="#ffbd6d"/><path d="m676.801 0h15.1992v100h-15.1992z" fill="#feb969"/><path d="m686.898 0h15.2031v100h-15.2031z" fill="#feb566"/><path d="m697 0h15.1992v100h-15.1992z" fill="#feb163"/><path d="m707.102 0h15.1992v100h-15.1992z" fill="#fdac60"/><path d="m717.199 0h15.1992v100h-15.1992z" fill="#fca55c"/><path d="m727.301 0h15.1992v100h-15.1992z" fill="#fba05a"/><path d="m737.398 0h15.2031v100h-15.2031z" fill="#fa9b57"/><path d="m747.5 0h15.1992v100h-15.1992z" fill="#f99655"/><path d="m757.602 0h15.1992v100h-15.1992z" fill="#f89152"/><path d="m767.699 0h15.1992v100h-15.1992z" fill="#f98b4f"/><path d="m777.801 0h15.1992v100h-15.1992z" fill="#f7854d"/><path d="m787.898 0h15.2031v100h-15.2031z" fill="#f6804a"/><path d="m798 0h15.1992v100h-15.1992z" fill="#f47a48"/><path d="m808.102 0h15.1992v100h-15.1992z" fill="#f27444"/><path d="m818.199 0h15.1992v100h-15.1992z" fill="#f06e42"/><path d="m828.301 0h15.1992v100h-15.1992z" fill="#ed673e"/><path d="m838.398 0h15.2031v100h-15.2031z" fill="#ea613b"/><path d="m848.5 0h15.1992v100h-15.1992z" fill="#e85b38"/><path d="m858.602 0h15.1992v100h-15.1992z" fill="#e55435"/><path d="m868.699 0h15.1992v100h-15.1992z" fill="#e34d32"/><path d="m878.801 0h15.1992v100h-15.1992z" fill="#e04630"/><path d="m888.898 0h15.2031v100h-15.2031z" fill="#dd3d2d"/><path d="m899 0h15.1992v100h-15.1992z" fill="#d8392c"/><path d="m909.102 0h15.1992v100h-15.1992z" fill="#d2342c"/><path d="m919.199 0h15.1992v100h-15.1992z" fill="#cc2f2b"/><path d="m929.301 0h15.1992v100h-15.1992z" fill="#c72a29"/><path d="m939.398 0h15.2031v100h-15.2031z" fill="#c0242a"/><path d="m949.5 0h15.1992v100h-15.1992z" fill="#bb1e29"/><path d="m959.602 0h15.1992v100h-15.1992z" fill="#b51927"/><path d="m969.699 0h15.1992v100h-15.1992z" fill="#b01327"/><path d="m979.801 0h15.1992v100h-15.1992z" fill="#aa0926"/><path d="m989.898 0h10.1016v100h-10.1016z" fill="#a50026"/><path d="m0 0h1000v100h-1000z" style="fill:none;stroke:#d3d3d3;stroke-width:1.9;stroke-linecap:round;stroke-linejoin:round;stroke-miterlimit:10"/></g></g><text font-family="StandardSymL" font-size="8.9664" transform="matrix(1 0 0 -1 277.586 153.672)"><tspan x="0" y="0">∞</tspan></text><g clip-path="url(#h)" transform="matrix(1.00003 0 0 1.00003 312.246 152.707)"><g transform="scale(.1)"><path d="m0 0h100v100h-100z" fill="#fff"/><path d="m0 0h100v100h-100z" style="fill:none;stroke:#d3d3d3;stroke-width:1.9;stroke-linecap:round;stroke-linejoin:round;stroke-miterlimit:10"/></g></g><text font-family="NimbusRomNo9L" font-size="8.9664" transform="matrix(1 0 0 -1 341.617 153.672)"><tspan x="0 25.787367" y="0">––</tspan><tspan x="-335.63901 -329.16525 -324.68207 -320.70099 -318.20831 -315.71567 -313.22299 -309.24191 -306.74927 -304.48077 -300.13205 -272.659 -268.17581 -265.19 -262.69733 -258.21414 -253.73094" y="12.322">Qualitativebright</tspan></text><g clip-path="url(#i)" transform="matrix(1.00008 0 0 1.00003 151.778 140.384)"><g transform="scale(.1)"><path d="m0 0h214.301v100h-214.301z" fill="#4477ab"/><path d="m142.898 0h214.301v100h-214.301z" fill="#e67"/><path d="m285.699 0h214.301v100h-214.301z" fill="#248831"/><path d="m428.602 0h214.297v100h-214.297z" fill="#cdbb40"/><path d="m571.398 0h214.301v100h-214.301z" fill="#65ccef"/><path d="m714.301 0h214.301v100h-214.301z" fill="#aa3378"/><path d="m857.102 0h142.898v100h-142.898z" fill="#bbb"/><path d="m0 0h1000v100h-1000z" style="fill:none;stroke:#d3d3d3;stroke-width:1.9;stroke-linecap:round;stroke-linejoin:round;stroke-miterlimit:10"/></g></g><text font-family="NimbusRomNo9L" font-size="8.9664" transform="matrix(1 0 0 -1 272.193 141.35)"><tspan x="0 6.7248 9.710611 14.193811 42.81456 69.426834 95.214203" y="0">7(3)–––</tspan><tspan x="-203.237 -198.7538 -194.77272 -191.78691" y="12.323">dark</tspan></text><g clip-path="url(#j)" transform="matrix(1.00008 0 0 1.00003 151.778 128.062)"><g transform="scale(.1)"><path d="m0 0h250v100h-250z" fill="#222155"/><path d="m166.699 0h250v100h-250z" fill="#235555"/><path d="m333.301 0h250v100h-250z" fill="#245521"/><path d="m500 0h250v100h-250z" fill="#666632"/><path d="m666.699 0h250v100h-250z" fill="#673433"/><path d="m833.301 0h166.699v100h-166.699z" fill="#555"/><path d="m0 0h1000v100h-1000z" style="fill:none;stroke:#d3d3d3;stroke-width:1.9;stroke-linecap:round;stroke-linejoin:round;stroke-miterlimit:10"/></g></g><text font-family="NimbusRomNo9L" font-size="8.9664" transform="matrix(1 0 0 -1 278.541 129.027)"><tspan x="0 36.466351 63.078625 88.86599" y="0">6–––</tspan><tspan x="-209.58501 -205.10181 -202.11598 -197.63278 -193.14958 -188.66638 -181.94159 -177.96051 -173.6118 -169.26309 -165.28201" y="12.323">groundcover</tspan></text><g clip-path="url(#k)" transform="matrix(1.00008 0 0 1.00003 151.778 115.739)"><g transform="scale(.1)"><path d="m0 0h107.102v100h-107.102z" fill="#5566ab"/><path d="m71.3984 0h107.102v100h-107.102z" fill="#157731"/><path d="m142.898 0h107.102v100h-107.102z" fill="#45aa64"/><path d="m214.301 0h107.098v100h-107.098z" fill="#57aa1a"/><path d="m285.699 0h107.102v100h-107.102z" fill="#66881d"/><path d="m357.102 0h107.098v100h-107.098z" fill="#9abb52"/><path d="m428.602 0h107.098v100h-107.098z" fill="#568877"/><path d="m500 0h107.102v100h-107.102z" fill="#89bbaa"/><path d="m571.398 0h107.102v100h-107.102z" fill="#adc"/><path d="m642.898 0h107.102v100h-107.102z" fill="#45aa87"/><path d="m714.301 0h107.098v100h-107.098z" fill="#decc63"/><path d="m785.699 0h107.102v100h-107.102z" fill="#ffdd3e"/><path d="m857.102 0h107.098v100h-107.098z" fill="#ffee85"/><path d="m928.602 0h71.3984v100h-71.3984z" fill="#bb0012"/><path d="m0 0h1000v100h-1000z" style="fill:none;stroke:#d3d3d3;stroke-width:1.9;stroke-linecap:round;stroke-linejoin:round;stroke-miterlimit:10"/></g></g><text font-family="NimbusRomNo9L" font-size="8.9664" transform="matrix(1 0 0 -1 276.299 116.704)"><tspan x="0 4.4832 38.707951 65.320221 91.10759" y="0">14–––</tspan><tspan x="-207.343 -202.8598 -200.36714 -195.88394 -191.40074 -188.41493 -184.43385 -179.95065 -175.46745 -172.97479 -169.98898 -166.00789 -162.51997" y="12.323">high-contrast</tspan></text><g clip-path="url(#l)" transform="matrix(1.00008 0 0 1.00003 151.778 103.416)"><g transform="scale(.1)"><path d="m0 0h300v100h-300z" fill="#004389"/><path d="m200 0h300v100h-300z" fill="#deaa2f"/><path d="m400 0h300v100h-300z" fill="#b56"/><path d="m600 0h300v100h-300z"/><path d="m800 0h200v100h-200z" fill="#fff"/><path d="m0 0h1000v100h-1000z" style="fill:none;stroke:#d3d3d3;stroke-width:1.9;stroke-linecap:round;stroke-linejoin:round;stroke-miterlimit:10"/></g></g><text font-family="NimbusRomNo9L" font-size="8.9664" transform="matrix(1 0 0 -1 272.193 104.382)"><tspan x="0 6.7248 9.710611 14.193811 42.81456 69.426834 95.214203" y="0">5(5)–––</tspan><tspan x="-203.237 -200.74434 -198.25168 -193.76848 -189.28528" y="12.323">light</tspan></text><g clip-path="url(#m)" transform="matrix(1.00008 0 0 1.00003 151.778 91.094)"><g transform="scale(.1)"><path d="m0 0h166.699v100h-166.699z" fill="#77aade"/><path d="m111.102 0h166.699v100h-166.699z" fill="#ee8865"/><path d="m222.199 0h166.699v100h-166.699z" fill="#efdd86"/><path d="m333.301 0h166.699v100h-166.699z" fill="#fab"/><path d="m444.398 0h166.703v100h-166.703z" fill="#9df"/><path d="m555.602 0h166.699v100h-166.699z" fill="#45bb98"/><path d="m666.699 0h166.699v100h-166.699z" fill="#bccc2c"/><path d="m777.801 0h166.699v100h-166.699z" fill="#aa0"/><path d="m888.898 0h111.102v100h-111.102z" fill="#ddd"/><path d="m0 0h1000v100h-1000z" style="fill:none;stroke:#d3d3d3;stroke-width:1.9;stroke-linecap:round;stroke-linejoin:round;stroke-miterlimit:10"/></g></g><text font-family="NimbusRomNo9L" font-size="8.9664" transform="matrix(1 0 0 -1 278.541 92.059)"><tspan x="0 36.466351 63.078625 88.86599" y="0">9–––</tspan><tspan x="-209.58501 -202.60915 -198.12595 -195.63329 -191.65221" y="12.323">muted</tspan></text><g clip-path="url(#n)" transform="matrix(1.00008 0 0 1.00003 151.778 78.771)"><g transform="scale(.1)"><path d="m0 0h166.699v100h-166.699z" fill="#c67"/><path d="m111.102 0h166.699v100h-166.699z" fill="#332189"/><path d="m222.199 0h166.699v100h-166.699z" fill="#decc75"/><path d="m333.301 0h166.699v100h-166.699z" fill="#157731"/><path d="m444.398 0h166.703v100h-166.703z" fill="#88ccef"/><path d="m555.602 0h166.699v100h-166.699z" fill="#882155"/><path d="m666.699 0h166.699v100h-166.699z" fill="#45aa99"/><path d="m777.801 0h166.699v100h-166.699z" fill="#999930"/><path d="m888.898 0h111.102v100h-111.102z" fill="#aa439a"/><path d="m0 0h1000v100h-1000z" style="fill:none;stroke:#d3d3d3;stroke-width:1.9;stroke-linecap:round;stroke-linejoin:round;stroke-miterlimit:10"/></g></g><text font-family="NimbusRomNo9L" font-size="8.9664" transform="matrix(1 0 0 -1 272.193 79.736)"><tspan x="0 6.7248 9.710611 14.193811 42.81456 69.426834 95.214203" y="0">9(5)–––</tspan><tspan x="-203.237 -198.7538 -194.77272 -192.28006" y="12.323">pale</tspan></text><g clip-path="url(#o)" transform="matrix(1.00008 0 0 1.00003 151.778 66.448)"><g transform="scale(.1)"><path d="m0 0h250v100h-250z" fill="#bce"/><path d="m166.699 0h250v100h-250z" fill="#cef"/><path d="m333.301 0h250v100h-250z" fill="#cddda9"/><path d="m500 0h250v100h-250z" fill="#eeeeba"/><path d="m666.699 0h250v100h-250z" fill="#fcc"/><path d="m833.301 0h166.699v100h-166.699z" fill="#ddd"/><path d="m0 0h1000v100h-1000z" style="fill:none;stroke:#d3d3d3;stroke-width:1.9;stroke-linecap:round;stroke-linejoin:round;stroke-miterlimit:10"/></g></g><text font-family="NimbusRomNo9L" font-size="8.9664" transform="matrix(1 0 0 -1 278.541 67.413)"><tspan x="0 36.466351 63.078625 88.86599" y="0">6–––</tspan><tspan x="-209.58501 -205.10181 -202.60915 -198.12595 -195.14014 -191.15904 -186.67584" y="12.322">vibrant</tspan></text><g clip-path="url(#p)" transform="matrix(1.00008 0 0 1.00003 151.778 54.125)"><g transform="scale(.1)"><path d="m0 0h214.301v100h-214.301z" fill="#ee7731"/><path d="m142.898 0h214.301v100h-214.301z" fill="#0076bc"/><path d="m285.699 0h214.301v100h-214.301z" fill="#32bbef"/><path d="m428.602 0h214.297v100h-214.297z" fill="#ee3277"/><path d="m571.398 0h214.301v100h-214.301z" fill="#cc3410"/><path d="m714.301 0h214.301v100h-214.301z" fill="#029988"/><path d="m857.102 0h142.898v100h-142.898z" fill="#bbb"/><path d="m0 0h1000v100h-1000z" style="fill:none;stroke:#d3d3d3;stroke-width:1.9;stroke-linecap:round;stroke-linejoin:round;stroke-miterlimit:10"/></g></g><text font-family="NimbusRomNo9L" font-size="8.9664" transform="matrix(1 0 0 -1 272.193 55.091)"><tspan x="0 6.7248 9.710611 14.193811 42.81456 69.426834 95.214203" y="0">7(4)–––</tspan><tspan x="-266.215 -261.22968 -257.2486 -252.7654 -248.2822 -244.30112 -239.81792 -237.32526 -234.8326 -230.85152 -203.235 -198.7518 -196.25914 -192.77122 -188.79013 -185.80432 -181.82324 -179.33058 -173.10789 -170.12209 -166.14101 -163.64835 -159.16515 -154.68195 -150.42291" y="12.323">Sequentialdiscreterainbow</tspan></text><g clip-path="url(#q)" transform="matrix(1.00008 0 0 1.00003 151.778 41.803)"><g transform="scale(.1)"><path d="m0 0h65.1992v100h-65.1992z" fill="#e8ecfb"/><path d="m43.5 0h65.1992v100h-65.1992z" fill="#d9cce3"/><path d="m87 0h65.1992v100h-65.1992z" fill="#caaccb"/><path d="m130.398 0h65.2031v100h-65.2031z" fill="#ba8db4"/><path d="m173.898 0h65.2031v100h-65.2031z" fill="#aa6f9f"/><path d="m217.398 0h65.2031v100h-65.2031z" fill="#994f89"/><path d="m260.898 0h65.2031v100h-65.2031z" fill="#882e73"/><path d="m304.301 0h65.1992v100h-65.1992z" fill="#1864b1"/><path d="m347.801 0h65.1992v100h-65.1992z" fill="#427dc0"/><path d="m391.301 0h65.1992v100h-65.1992z" fill="#6195d0"/><path d="m434.801 0h65.1992v100h-65.1992z" fill="#7bafdf"/><path d="m478.301 0h65.1992v100h-65.1992z" fill="#4fb263"/><path d="m521.699 0h65.1992v100h-65.1992z" fill="#91c986"/><path d="m565.199 0h65.1992v100h-65.1992z" fill="#cbe0aa"/><path d="m608.699 0h65.1992v100h-65.1992z" fill="#f8f050"/><path d="m652.199 0h65.1992v100h-65.1992z" fill="#f8cb40"/><path d="m695.699 0h65.1992v100h-65.1992z" fill="#f5a732"/><path d="m739.102 0h65.1992v100h-65.1992z" fill="#ee8023"/><path d="m782.602 0h65.1992v100h-65.1992z" fill="#e65516"/><path d="m826.102 0h65.1992v100h-65.1992z" fill="#dc030d"/><path d="m869.602 0h65.1992v100h-65.1992z" fill="#a5190f"/><path d="m913 0h65.1992v100h-65.1992z" fill="#721a10"/><path d="m956.5 0h43.5v100h-43.5z" fill="#42170d"/><path d="m0 0h1000v100h-1000z" style="fill:none;stroke:#d3d3d3;stroke-width:1.9;stroke-linecap:round;stroke-linejoin:round;stroke-miterlimit:10"/></g></g><text font-family="NimbusRomNo9L" font-size="8.9664" transform="matrix(1 0 0 -1 276.299 42.768)"><tspan x="0 4.4832" y="0">23</tspan></text><g clip-path="url(#r)" transform="matrix(1.00003 0 0 1.00003 312.246 41.803)"><g transform="scale(.1)"><path d="m0 0h100v100h-100z" fill="#777"/><path d="m0 0h100v100h-100z" style="fill:none;stroke:#d3d3d3;stroke-width:1.9;stroke-linecap:round;stroke-linejoin:round;stroke-miterlimit:10"/></g></g><text font-family="NimbusRomNo9L" font-size="8.9664" transform="matrix(1 0 0 -1 341.617 42.768)"><tspan x="0 25.787367" y="0">––</tspan><tspan x="-272.66101 -270.16833 -267.18253 -264.68988 -260.20667 -256.22559 -252.73766 -248.75658 -244.7755 -240.2923" y="12.323">iridescent</tspan></text><g clip-path="url(#s)" transform="matrix(1.00008 0 0 1.00003 151.778 29.48)"><g transform="scale(.1)"><path d="m0 0h15.1992v100h-15.1992z" fill="#fefae9"/><path d="m10.1016 0h15.1992v100h-15.1992z" fill="#fef9e4"/><path d="m20.1992 0h15.1992v100h-15.1992z" fill="#fdf8df"/><path d="m30.3008 0h15.1992v100h-15.1992z" fill="#fdf8da"/><path d="m40.3984 0h15.2031v100h-15.2031z" fill="#fcf7d6"/><path d="m50.5 0h15.1992v100h-15.1992z" fill="#fbf6d1"/><path d="m60.6016 0h15.1992v100h-15.1992z" fill="#f9f5cc"/><path d="m70.6992 0h15.1992v100h-15.1992z" fill="#f8f4c8"/><path d="m80.8008 0h15.1992v100h-15.1992z" fill="#f6f3c4"/><path d="m90.8984 0h15.2031v100h-15.2031z" fill="#f4f2bf"/><path d="m101 0h15.1992v100h-15.1992z" fill="#f2f2bd"/><path d="m111.102 0h15.1992v100h-15.1992z" fill="#eff1ba"/><path d="m121.199 0h15.1992v100h-15.1992z" fill="#ecf1b7"/><path d="m131.301 0h15.1992v100h-15.1992z" fill="#ebf0b5"/><path d="m141.398 0h15.2031v100h-15.2031z" fill="#e9efb5"/><path d="m151.5 0h15.1992v100h-15.1992z" fill="#e6eeb7"/><path d="m161.602 0h15.1992v100h-15.1992z" fill="#e3edb9"/><path d="m171.699 0h15.1992v100h-15.1992z" fill="#e0ecbc"/><path d="m181.801 0h15.1992v100h-15.1992z" fill="#ddebbe"/><path d="m191.898 0h15.2031v100h-15.2031z" fill="#daeac1"/><path d="m202 0h15.1992v100h-15.1992z" fill="#d7e9c3"/><path d="m212.102 0h15.1992v100h-15.1992z" fill="#d3e8c5"/><path d="m222.199 0h15.1992v100h-15.1992z" fill="#d0e6c8"/><path d="m232.301 0h15.1992v100h-15.1992z" fill="#cde6ca"/><path d="m242.398 0h15.2031v100h-15.2031z" fill="#cae5cd"/><path d="m252.5 0h15.1992v100h-15.1992z" fill="#c7e4ce"/><path d="m262.602 0h15.1992v100h-15.1992z" fill="#c4e3d0"/><path d="m272.699 0h15.1992v100h-15.1992z" fill="#c1e3d2"/><path d="m282.801 0h15.1992v100h-15.1992z" fill="#bee1d3"/><path d="m292.898 0h15.2031v100h-15.2031z" fill="#bbdfd5"/><path d="m303 0h15.1992v100h-15.1992z" fill="#b8ded6"/><path d="m313.102 0h15.1992v100h-15.1992z" fill="#b5ddd8"/><path d="m323.199 0h15.1992v100h-15.1992z" fill="#b3dcd8"/><path d="m333.301 0h15.1992v100h-15.1992z" fill="#afdad9"/><path d="m343.398 0h15.2031v100h-15.2031z" fill="#acd9da"/><path d="m353.5 0h15.1992v100h-15.1992z" fill="#aad8db"/><path d="m363.602 0h15.1992v100h-15.1992z" fill="#a6d7dc"/><path d="m373.699 0h15.1992v100h-15.1992z" fill="#a4d6dd"/><path d="m383.801 0h15.1992v100h-15.1992z" fill="#a1d4de"/><path d="m393.898 0h15.2031v100h-15.2031z" fill="#9dd3df"/><path d="m404 0h15.1992v100h-15.1992z" fill="#9bd2e0"/><path d="m414.102 0h15.1992v100h-15.1992z" fill="#98d0e1"/><path d="m424.199 0h15.1992v100h-15.1992z" fill="#95cfe1"/><path d="m434.301 0h15.1992v100h-15.1992z" fill="#92cde3"/><path d="m444.398 0h15.2031v100h-15.2031z" fill="#8ecbe4"/><path d="m454.5 0h15.1992v100h-15.1992z" fill="#8bcae4"/><path d="m464.602 0h15.1992v100h-15.1992z" fill="#87c8e5"/><path d="m474.699 0h15.1992v100h-15.1992z" fill="#85c7e5"/><path d="m484.801 0h15.1992v100h-15.1992z" fill="#82c5e6"/><path d="m494.898 0h15.2031v100h-15.2031z" fill="#7fc4e7"/><path d="m505.102 0h15.1992v100h-15.1992z" fill="#7fc2e7"/><path d="m515.199 0h15.1992v100h-15.1992z" fill="#7ec0e7"/><path d="m525.301 0h15.1992v100h-15.1992z" fill="#7dbee7"/><path d="m535.398 0h15.2031v100h-15.2031z" fill="#7bbce7"/><path d="m545.5 0h15.1992v100h-15.1992z" fill="#7abbe7"/><path d="m555.602 0h15.1992v100h-15.1992z" fill="#7cb8e6"/><path d="m565.699 0h15.1992v100h-15.1992z" fill="#7db6e6"/><path d="m575.801 0h15.1992v100h-15.1992z" fill="#7db4e6"/><path d="m585.898 0h15.2031v100h-15.2031z" fill="#7eb1e4"/><path d="m596 0h15.1992v100h-15.1992z" fill="#80afe3"/><path d="m606.102 0h15.1992v100h-15.1992z" fill="#83abe1"/><path d="m616.199 0h15.1992v100h-15.1992z" fill="#85a8e0"/><path d="m626.301 0h15.1992v100h-15.1992z" fill="#87a6de"/><path d="m636.398 0h15.2031v100h-15.2031z" fill="#89a2dc"/><path d="m646.5 0h15.1992v100h-15.1992z" fill="#8ba0da"/><path d="m656.602 0h15.1992v100h-15.1992z" fill="#8e9dd7"/><path d="m666.699 0h15.1992v100h-15.1992z" fill="#9199d4"/><path d="m676.801 0h15.1992v100h-15.1992z" fill="#9397d2"/><path d="m686.898 0h15.2031v100h-15.2031z" fill="#9593cf"/><path d="m697 0h15.1992v100h-15.1992z" fill="#9791cc"/><path d="m707.102 0h15.1992v100h-15.1992z" fill="#998ec8"/><path d="m717.199 0h15.1992v100h-15.1992z" fill="#9a8ac5"/><path d="m727.301 0h15.1992v100h-15.1992z" fill="#9b87c1"/><path d="m737.398 0h15.2031v100h-15.2031z" fill="#9c84bd"/><path d="m747.5 0h15.1992v100h-15.1992z" fill="#9c82ba"/><path d="m757.602 0h15.1992v100h-15.1992z" fill="#9d7fb6"/><path d="m767.699 0h15.1992v100h-15.1992z" fill="#9d7cb2"/><path d="m777.801 0h15.1992v100h-15.1992z" fill="#9c79ac"/><path d="m787.898 0h15.2031v100h-15.2031z" fill="#9b76a8"/><path d="m798 0h15.1992v100h-15.1992z" fill="#9b73a4"/><path d="m808.102 0h15.1992v100h-15.1992z" fill="#99709f"/><path d="m818.199 0h15.1992v100h-15.1992z" fill="#986e9b"/><path d="m828.301 0h15.1992v100h-15.1992z" fill="#966a94"/><path d="m838.398 0h15.2031v100h-15.2031z" fill="#93678f"/><path d="m848.5 0h15.1992v100h-15.1992z" fill="#91658b"/><path d="m858.602 0h15.1992v100h-15.1992z" fill="#8e6186"/><path d="m868.699 0h15.1992v100h-15.1992z" fill="#8b5f80"/><path d="m878.801 0h15.1992v100h-15.1992z" fill="#875c7b"/><path d="m888.898 0h15.2031v100h-15.2031z" fill="#835975"/><path d="m899 0h15.1992v100h-15.1992z" fill="#815770"/><path d="m909.102 0h15.1992v100h-15.1992z" fill="#7b536a"/><path d="m919.199 0h15.1992v100h-15.1992z" fill="#755165"/><path d="m929.301 0h15.1992v100h-15.1992z" fill="#704d5f"/><path d="m939.398 0h15.2031v100h-15.2031z" fill="#6a4a59"/><path d="m949.5 0h15.1992v100h-15.1992z" fill="#644654"/><path d="m959.602 0h15.1992v100h-15.1992z" fill="#5d424d"/><path d="m969.699 0h15.1992v100h-15.1992z" fill="#553e46"/><path d="m979.801 0h15.1992v100h-15.1992z" fill="#4e3940"/><path d="m989.898 0h10.1016v100h-10.1016z" fill="#473439"/><path d="m0 0h1000v100h-1000z" style="fill:none;stroke:#d3d3d3;stroke-width:1.9;stroke-linecap:round;stroke-linejoin:round;stroke-miterlimit:10"/></g></g><text font-family="StandardSymL" font-size="8.9664" transform="matrix(1 0 0 -1 277.586 30.445)"><tspan x="0" y="0">∞</tspan></text><g clip-path="url(#t)" transform="matrix(1.00003 0 0 1.00003 312.246 29.48)"><g transform="scale(.1)"><path d="m0 0h100v100h-100z" fill="#999"/><path d="m0 0h100v100h-100z" style="fill:none;stroke:#d3d3d3;stroke-width:1.9;stroke-linecap:round;stroke-linejoin:round;stroke-miterlimit:10"/></g></g><text font-family="NimbusRomNo9L" font-size="8.9664" transform="matrix(1 0 0 -1 341.617 30.445)"><tspan x="0 25.787367" y="0">––</tspan><tspan x="-272.66101 -269.17307 -262.1972 -257.71402 -253.2308 -250.73816 -244.01335 -241.02754 -237.04646 -234.5538 -230.0706 -225.5874 -221.32835" y="12.322">smoothrainbow</tspan></text><g clip-path="url(#u)" transform="matrix(1.00008 0 0 1.00003 151.778 17.157)"><g transform="scale(.1)"><path d="m0 0h15.1992v100h-15.1992z" fill="#e7ebfa"/><path d="m10.1016 0h15.1992v100h-15.1992z" fill="#e4e5f6"/><path d="m20.1992 0h15.1992v100h-15.1992z" fill="#e0def2"/><path d="m30.3008 0h15.1992v100h-15.1992z" fill="#ddd7ee"/><path d="m40.3984 0h15.2031v100h-15.2031z" fill="#d8cfea"/><path d="m50.5 0h15.1992v100h-15.1992z" fill="#d5c8e5"/><path d="m60.6016 0h15.1992v100h-15.1992z" fill="#d0c0e0"/><path d="m70.6992 0h15.1992v100h-15.1992z" fill="#cbb7dc"/><path d="m80.8008 0h15.1992v100h-15.1992z" fill="#c7afd6"/><path d="m90.8984 0h15.2031v100h-15.2031z" fill="#c2a7d1"/><path d="m101 0h15.1992v100h-15.1992z" fill="#be9fcc"/><path d="m111.102 0h15.1992v100h-15.1992z" fill="#b896c6"/><path d="m121.199 0h15.1992v100h-15.1992z" fill="#b48dc2"/><path d="m131.301 0h15.1992v100h-15.1992z" fill="#af85bd"/><path d="m141.398 0h15.2031v100h-15.2031z" fill="#ab7eb9"/><path d="m151.5 0h15.1992v100h-15.1992z" fill="#a677b4"/><path d="m161.602 0h15.1992v100h-15.1992z" fill="#a26fb0"/><path d="m171.699 0h15.1992v100h-15.1992z" fill="#9d67ab"/><path d="m181.801 0h15.1992v100h-15.1992z" fill="#9960a7"/><path d="m191.898 0h15.2031v100h-15.2031z" fill="#9559a2"/><path d="m202 0h15.1992v100h-15.1992z" fill="#90529d"/><path d="m212.102 0h15.1992v100h-15.1992z" fill="#8a4d9a"/><path d="m222.199 0h15.1992v100h-15.1992z" fill="#804c9a"/><path d="m232.301 0h15.1992v100h-15.1992z" fill="#764c9b"/><path d="m242.398 0h15.2031v100h-15.2031z" fill="#6d4c9d"/><path d="m252.5 0h15.1992v100h-15.1992z" fill="#6950a1"/><path d="m262.602 0h15.1992v100h-15.1992z" fill="#6455a6"/><path d="m272.699 0h15.1992v100h-15.1992z" fill="#5f58aa"/><path d="m282.801 0h15.1992v100h-15.1992z" fill="#5b5eb0"/><path d="m292.898 0h15.2031v100h-15.2031z" fill="#5764b5"/><path d="m303 0h15.1992v100h-15.1992z" fill="#5468ba"/><path d="m313.102 0h15.1992v100h-15.1992z" fill="#526ebe"/><path d="m323.199 0h15.1992v100h-15.1992z" fill="#5073c2"/><path d="m333.301 0h15.1992v100h-15.1992z" fill="#4e7bc6"/><path d="m343.398 0h15.2031v100h-15.2031z" fill="#4e80c6"/><path d="m353.5 0h15.1992v100h-15.1992z" fill="#4d86c6"/><path d="m363.602 0h15.1992v100h-15.1992z" fill="#4d8bc5"/><path d="m373.699 0h15.1992v100h-15.1992z" fill="#4e8fc2"/><path d="m383.801 0h15.1992v100h-15.1992z" fill="#4e93bf"/><path d="m393.898 0h15.2031v100h-15.2031z" fill="#4f97bb"/><path d="m404 0h15.1992v100h-15.1992z" fill="#5199b7"/><path d="m414.102 0h15.1992v100h-15.1992z" fill="#539cb4"/><path d="m424.199 0h15.1992v100h-15.1992z" fill="#559eb1"/><path d="m434.301 0h15.1992v100h-15.1992z" fill="#57a1ae"/><path d="m444.398 0h15.2031v100h-15.2031z" fill="#59a4aa"/><path d="m454.5 0h15.1992v100h-15.1992z" fill="#5ba5a7"/><path d="m464.602 0h15.1992v100h-15.1992z" fill="#5da8a3"/><path d="m474.699 0h15.1992v100h-15.1992z" fill="#5ea9a0"/><path d="m484.801 0h15.1992v100h-15.1992z" fill="#62ac9b"/><path d="m494.898 0h15.2031v100h-15.2031z" fill="#66ad97"/><path d="m505.102 0h15.1992v100h-15.1992z" fill="#68b091"/><path d="m515.199 0h15.1992v100h-15.1992z" fill="#6cb28b"/><path d="m525.301 0h15.1992v100h-15.1992z" fill="#71b385"/><path d="m535.398 0h15.2031v100h-15.2031z" fill="#75b67e"/><path d="m545.5 0h15.1992v100h-15.1992z" fill="#7ab778"/><path d="m555.602 0h15.1992v100h-15.1992z" fill="#83b970"/><path d="m565.699 0h15.1992v100h-15.1992z" fill="#8abb69"/><path d="m575.801 0h15.1992v100h-15.1992z" fill="#92bc62"/><path d="m585.898 0h15.2031v100h-15.2031z" fill="#9bbd5a"/><path d="m596 0h15.1992v100h-15.1992z" fill="#a3be54"/><path d="m606.102 0h15.1992v100h-15.1992z" fill="#acbf4e"/><path d="m616.199 0h15.1992v100h-15.1992z" fill="#b4bd4a"/><path d="m626.301 0h15.1992v100h-15.1992z" fill="#bcbc46"/><path d="m636.398 0h15.2031v100h-15.2031z" fill="#c2ba42"/><path d="m646.5 0h15.1992v100h-15.1992z" fill="#c9b840"/><path d="m656.602 0h15.1992v100h-15.1992z" fill="#cfb53d"/><path d="m666.699 0h15.1992v100h-15.1992z" fill="#d4b23b"/><path d="m676.801 0h15.1992v100h-15.1992z" fill="#d8ae3a"/><path d="m686.898 0h15.2031v100h-15.2031z" fill="#dcab38"/><path d="m697 0h15.1992v100h-15.1992z" fill="#dfa638"/><path d="m707.102 0h15.1992v100h-15.1992z" fill="#e1a236"/><path d="m717.199 0h15.1992v100h-15.1992z" fill="#e49c36"/><path d="m727.301 0h15.1992v100h-15.1992z" fill="#e69735"/><path d="m737.398 0h15.2031v100h-15.2031z" fill="#e69233"/><path d="m747.5 0h15.1992v100h-15.1992z" fill="#e78d32"/><path d="m757.602 0h15.1992v100h-15.1992z" fill="#e78731"/><path d="m767.699 0h15.1992v100h-15.1992z" fill="#e68131"/><path d="m777.801 0h15.1992v100h-15.1992z" fill="#e67a30"/><path d="m787.898 0h15.2031v100h-15.2031z" fill="#e6732e"/><path d="m798 0h15.1992v100h-15.1992z" fill="#e56b2d"/><path d="m808.102 0h15.1992v100h-15.1992z" fill="#e4632c"/><path d="m818.199 0h15.1992v100h-15.1992z" fill="#e35c2b"/><path d="m828.301 0h15.1992v100h-15.1992z" fill="#e15329"/><path d="m838.398 0h15.2031v100h-15.2031z" fill="#df4a26"/><path d="m848.5 0h15.1992v100h-15.1992z" fill="#dd3e26"/><path d="m858.602 0h15.1992v100h-15.1992z" fill="#dc3423"/><path d="m868.699 0h15.1992v100h-15.1992z" fill="#da2321"/><path d="m878.801 0h15.1992v100h-15.1992z" fill="#d02120"/><path d="m888.898 0h15.2031v100h-15.2031z" fill="#c4211f"/><path d="m899 0h15.1992v100h-15.1992z" fill="#b9221e"/><path d="m909.102 0h15.1992v100h-15.1992z" fill="#ac221d"/><path d="m919.199 0h15.1992v100h-15.1992z" fill="#a1221c"/><path d="m929.301 0h15.1992v100h-15.1992z" fill="#95211b"/><path d="m939.398 0h15.2031v100h-15.2031z" fill="#89201a"/><path d="m949.5 0h15.1992v100h-15.1992z" fill="#7d1f19"/><path d="m959.602 0h15.1992v100h-15.1992z" fill="#721e18"/><path d="m969.699 0h15.1992v100h-15.1992z" fill="#671e17"/><path d="m979.801 0h15.1992v100h-15.1992z" fill="#5c1b16"/><path d="m989.898 0h10.1016v100h-10.1016z" fill="#521a15"/><path d="m0 0h1000v100h-1000z" style="fill:none;stroke:#d3d3d3;stroke-width:1.9;stroke-linecap:round;stroke-linejoin:round;stroke-miterlimit:10"/></g></g><text font-family="StandardSymL" font-size="8.9664" transform="matrix(1 0 0 -1 277.586 18.123)"><tspan x="0" y="0">∞</tspan></text><g clip-path="url(#v)" transform="matrix(1.00003 0 0 1.00003 312.246 17.157)"><g transform="scale(.1)"><path d="m0 0h100v100h-100z" fill="#666"/><path d="m0 0h100v100h-100z" style="fill:none;stroke:#d3d3d3;stroke-width:1.9;stroke-linecap:round;stroke-linejoin:round;stroke-miterlimit:10"/></g></g><text font-family="NimbusRomNo9L" font-size="8.9664" transform="matrix(1 0 0 -1 341.617 18.123)"><tspan x="0 25.787367" y="0">––</tspan><tspan x="-272.66101 -266.18726 -263.69461 -257.22086 -254.23505 -248.25446" y="12.323">YlOrBr</tspan></text><g clip-path="url(#w)" transform="matrix(1.00008 0 0 1.00003 151.778 4.835)"><g transform="scale(.1)"><path d="m0 0h15.1992v100h-15.1992z" fill="#ffffe4"/><path d="m10.1016 0h15.1992v100h-15.1992z" fill="#fffee0"/><path d="m20.1992 0h15.1992v100h-15.1992z" fill="#fffddd"/><path d="m30.3008 0h15.1992v100h-15.1992z" fill="#fffdda"/><path d="m40.3984 0h15.2031v100h-15.2031z" fill="#fffcd6"/><path d="m50.5 0h15.1992v100h-15.1992z" fill="#fffcd3"/><path d="m60.6016 0h15.1992v100h-15.1992z" fill="#fffacf"/><path d="m70.6992 0h15.1992v100h-15.1992z" fill="#fff9cc"/><path d="m80.8008 0h15.1992v100h-15.1992z" fill="#fff9c9"/><path d="m90.8984 0h15.2031v100h-15.2031z" fill="#fff8c5"/><path d="m101 0h15.1992v100h-15.1992z" fill="#fff8c2"/><path d="m111.102 0h15.1992v100h-15.1992z" fill="#fff8bf"/><path d="m121.199 0h15.1992v100h-15.1992z" fill="#fff7bb"/><path d="m131.301 0h15.1992v100h-15.1992z" fill="#fff6b8"/><path d="m141.398 0h15.2031v100h-15.2031z" fill="#fff3b4"/><path d="m151.5 0h15.1992v100h-15.1992z" fill="#fff2b0"/><path d="m161.602 0h15.1992v100h-15.1992z" fill="#fff1ac"/><path d="m171.699 0h15.1992v100h-15.1992z" fill="#ffeea8"/><path d="m181.801 0h15.1992v100h-15.1992z" fill="#ffeda5"/><path d="m191.898 0h15.2031v100h-15.2031z" fill="#ffeba2"/><path d="m202 0h15.1992v100h-15.1992z" fill="#ffea9f"/><path d="m212.102 0h15.1992v100h-15.1992z" fill="#ffe89b"/><path d="m222.199 0h15.1992v100h-15.1992z" fill="#ffe697"/><path d="m232.301 0h15.1992v100h-15.1992z" fill="#ffe594"/><path d="m242.398 0h15.2031v100h-15.2031z" fill="#ffe390"/><path d="m252.5 0h15.1992v100h-15.1992z" fill="#ffe28c"/><path d="m262.602 0h15.1992v100h-15.1992z" fill="#ffdf87"/><path d="m272.699 0h15.1992v100h-15.1992z" fill="#ffdd82"/><path d="m282.801 0h15.1992v100h-15.1992z" fill="#ffda7c"/><path d="m292.898 0h15.2031v100h-15.2031z" fill="#ffd776"/><path d="m303 0h15.1992v100h-15.1992z" fill="#ffd571"/><path d="m313.102 0h15.1992v100h-15.1992z" fill="#ffd26b"/><path d="m323.199 0h15.1992v100h-15.1992z" fill="#ffd066"/><path d="m333.301 0h15.1992v100h-15.1992z" fill="#ffcd60"/><path d="m343.398 0h15.2031v100h-15.2031z" fill="#ffca5b"/><path d="m353.5 0h15.1992v100h-15.1992z" fill="#ffc855"/><path d="m363.602 0h15.1992v100h-15.1992z" fill="#ffc550"/><path d="m373.699 0h15.1992v100h-15.1992z" fill="#ffc34b"/><path d="m383.801 0h15.1992v100h-15.1992z" fill="#ffbf48"/><path d="m393.898 0h15.2031v100h-15.2031z" fill="#ffbc43"/><path d="m404 0h15.1992v100h-15.1992z" fill="#ffb941"/><path d="m414.102 0h15.1992v100h-15.1992z" fill="#feb53e"/><path d="m424.199 0h15.1992v100h-15.1992z" fill="#feb23b"/><path d="m434.301 0h15.1992v100h-15.1992z" fill="#feae38"/><path d="m444.398 0h15.2031v100h-15.2031z" fill="#feaa34"/><path d="m454.5 0h15.1992v100h-15.1992z" fill="#fda732"/><path d="m464.602 0h15.1992v100h-15.1992z" fill="#fda42e"/><path d="m474.699 0h15.1992v100h-15.1992z" fill="#fca12b"/><path d="m484.801 0h15.1992v100h-15.1992z" fill="#fa9d28"/><path d="m494.898 0h15.2031v100h-15.2031z" fill="#fa9924"/><path d="m505.102 0h15.1992v100h-15.1992z" fill="#f99622"/><path d="m515.199 0h15.1992v100h-15.1992z" fill="#f89320"/><path d="m525.301 0h15.1992v100h-15.1992z" fill="#f7901f"/><path d="m535.398 0h15.2031v100h-15.2031z" fill="#f68c1c"/><path d="m545.5 0h15.1992v100h-15.1992z" fill="#f5891a"/><path d="m555.602 0h15.1992v100h-15.1992z" fill="#f48519"/><path d="m565.699 0h15.1992v100h-15.1992z" fill="#f28218"/><path d="m575.801 0h15.1992v100h-15.1992z" fill="#f17f16"/><path d="m585.898 0h15.2031v100h-15.2031z" fill="#f07b14"/><path d="m596 0h15.1992v100h-15.1992z" fill="#ef7813"/><path d="m606.102 0h15.1992v100h-15.1992z" fill="#ed7411"/><path d="m616.199 0h15.1992v100h-15.1992z" fill="#eb7010"/><path d="m626.301 0h15.1992v100h-15.1992z" fill="#ea6d0f"/><path d="m636.398 0h15.2031v100h-15.2031z" fill="#e76a0d"/><path d="m646.5 0h15.1992v100h-15.1992z" fill="#e5680c"/><path d="m656.602 0h15.1992v100h-15.1992z" fill="#e2650a"/><path d="m666.699 0h15.1992v100h-15.1992z" fill="#df6109"/><path d="m676.801 0h15.1992v100h-15.1992z" fill="#dd5f07"/><path d="m686.898 0h15.2031v100h-15.2031z" fill="#da5c05"/><path d="m697 0h15.1992v100h-15.1992z" fill="#d85902"/><path d="m707.102 0h15.1992v100h-15.1992z" fill="#d55601"/><path d="m717.199 0h15.1992v100h-15.1992z" fill="#d25300"/><path d="m727.301 0h15.1992v100h-15.1992z" fill="#d05000"/><path d="m737.398 0h15.2031v100h-15.2031z" fill="#cd4d00"/><path d="m747.5 0h15.1992v100h-15.1992z" fill="#ca4b00"/><path d="m757.602 0h15.1992v100h-15.1992z" fill="#c54900"/><path d="m767.699 0h15.1992v100h-15.1992z" fill="#c14700"/><path d="m777.801 0h15.1992v100h-15.1992z" fill="#bc4500"/><path d="m787.898 0h15.2031v100h-15.2031z" fill="#b84200"/><path d="m798 0h15.1992v100h-15.1992z" fill="#b44100"/><path d="m808.102 0h15.1992v100h-15.1992z" fill="#b03f00"/><path d="m818.199 0h15.1992v100h-15.1992z" fill="#ac3d00"/><path d="m828.301 0h15.1992v100h-15.1992z" fill="#a83c01"/><path d="m838.398 0h15.2031v100h-15.2031z" fill="#a33a01"/><path d="m848.5 0h15.1992v100h-15.1992z" fill="#a03802"/><path d="m858.602 0h15.1992v100h-15.1992z" fill="#9c3602"/><path d="m868.699 0h15.1992v100h-15.1992z" fill="#983402"/><path d="m878.801 0h15.1992v100h-15.1992z" fill="#933203"/><path d="m888.898 0h15.2031v100h-15.2031z" fill="#8e3104"/><path d="m899 0h15.1992v100h-15.1992z" fill="#8b3104"/><path d="m909.102 0h15.1992v100h-15.1992z" fill="#862f05"/><path d="m919.199 0h15.1992v100h-15.1992z" fill="#822e05"/><path d="m929.301 0h15.1992v100h-15.1992z" fill="#7e2d05"/><path d="m939.398 0h15.2031v100h-15.2031z" fill="#792c06"/><path d="m949.5 0h15.1992v100h-15.1992z" fill="#762b06"/><path d="m959.602 0h15.1992v100h-15.1992z" fill="#712906"/><path d="m969.699 0h15.1992v100h-15.1992z" fill="#6e2706"/><path d="m979.801 0h15.1992v100h-15.1992z" fill="#6a2606"/><path d="m989.898 0h10.1016v100h-10.1016z" fill="#662506"/><path d="m0 0h1000v100h-1000z" style="fill:none;stroke:#d3d3d3;stroke-width:1.9;stroke-linecap:round;stroke-linejoin:round;stroke-miterlimit:10"/></g></g><text font-family="StandardSymL" font-size="8.9664" transform="matrix(1 0 0 -1 277.586 5.8)"><tspan x="0" y="0">∞</tspan></text><g clip-path="url(#x)" transform="matrix(1.00003 0 0 1.00003 312.246 4.835)"><g transform="scale(.1)"><path d="m0 0h100v100h-100z" fill="#888"/><path d="m0 0h100v100h-100z" style="fill:none;stroke:#d3d3d3;stroke-width:1.9;stroke-linecap:round;stroke-linejoin:round;stroke-miterlimit:10"/></g></g><text font-family="NimbusRomNo9L" font-size="8.9664" transform="matrix(1 0 0 -1 341.617 5.8)"><tspan x="0 25.787367" y="0">––</tspan></text><path d="m0 0h382.271" fill="none" stroke="#000" stroke-miterlimit="10" stroke-width=".797" transform="translate(0 .398)"/></g></g></svg>