<svg height="98.666664" viewBox="0 0 514.66669 98.666664" width="514.66669" xmlns="http://www.w3.org/2000/svg" xmlns:xlink="http://www.w3.org/1999/xlink"><clipPath id="a"><path d="m0 0h384v72h-384z"/></clipPath><clipPath id="b"><path d="m0 0h16322.79v73.022h-16322.79z"/></clipPath><clipPath id="c"><path d="m0 0h100v10h-100z"/></clipPath><clipPath id="d"><path d="m0 0h10v10h-10z"/></clipPath><clipPath id="e"><path d="m0 0h10v10h-10z"/></clipPath><clipPath id="f"><path d="m0 0h10v10h-10z"/></clipPath><clipPath id="g"><path d="m0 0h100v10h-100z"/></clipPath><clipPath id="h"><path d="m0 0h10v10h-10z"/></clipPath><clipPath id="i"><path d="m0 0h10v10h-10z"/></clipPath><clipPath id="j"><path d="m0 0h10v10h-10z"/></clipPath><clipPath id="k"><path d="m0 0h100v10h-100z"/></clipPath><clipPath id="l"><path d="m0 0h10v10h-10z"/></clipPath><clipPath id="m"><path d="m0 0h10v10h-10z"/></clipPath><clipPath id="n"><path d="m0 0h10v10h-10z"/></clipPath><g clip-path="url(#a)" transform="matrix(1.3333333 0 0 -1.3333333 1.3279999668 97.3333337)"><g clip-path="url(#b)" transform="translate(1)"><text font-family="NimbusRomNo9L" font-size="9.9626" transform="matrix(1 0 0 -1 0 64.653)"><tspan x="0 5.728495 10.709795 16.249001 19.018604 25.932648 30.913948" y="0">Table3.</tspan></text><text font-family="NimbusRomNo9L" font-size="9.9626" transform="matrix(1 0 0 -1 36.493 64.653)"><tspan x="0 5.539206 9.9626 14.9439 19.367294 27.118196 31.541592 37.907692 42.888992 50.360943 56.448093 61.42939 66.41069 74.161598 78.584991 84.951088 92.144089 96.31842 103.51141 107.93481 114.84885 118.1664 123.1477 128.129 133.11031 138.0916 143.8998 151.09279 153.8624 156.632 164.10394 169.08525 173.50864 176.82619 184.57709 187.34669 191.22214 195.0976 197.8672 202.8485 210.32045 215.30174 218.61929 223.04269 228.02399 230.79359 235.21698 242.68893 245.45854 252.9305 257.91177 260.6814 264.55685 267.32645 270.64398 273.4136 278.19565 283.17694 285.94653 292.8606 295.63019 303.10214 310.29514 314.71854 319.97879 324.96008 329.94138 334.9227 339.90399" y="0">SchemesbyThomasDewez(2004)withpermissiongrantedtodistributeinOct2018.</tspan></text><path d="m0 0h382.271" fill="none" stroke="#000" stroke-miterlimit="10" stroke-width=".797" transform="translate(0 58.676)"/><text font-family="LMSans10" font-size="8.9664" font-weight="bold" transform="matrix(1 0 0 -1 21.427 47.819)"><tspan x="0 5.750152 10.233353 15.542357 67.046257 72.52562 76.909294 81.940346 86.523071 94.29425 165.63182 171.66441 176.37178 178.66269 183.24542 186.86964 190.49385 246.83064 255.59799 260.30536 268.07922 292.87222 319.75708 346.10303" y="0">TypeSchemePaletteMaxnNBF</tspan></text><path d="m0 0h382.271" fill="none" stroke="#000" stroke-miterlimit="10" stroke-width=".498" transform="translate(0 42.517)"/><text font-family="NimbusRomNo9L" font-size="8.9664" transform="matrix(1 0 0 -1 5.978 30.445)"><tspan x="0 4.985318 8.9664 13.4496 17.9328 21.913881 26.397081 28.88974 31.382401 35.363483 62.979992 69.453735 74.932205 85.144936 89.628136 94.111336 97.599266 100.09193 104.07301" y="0">SequentialDEMposter</tspan></text><g clip-path="url(#c)" transform="matrix(1.00008 0 0 1.00003 151.778 29.48)"><g transform="scale(.1)"><path d="m0 0h15.1992v100h-15.1992z" fill="#026046"/><path d="m10.1016 0h15.1992v100h-15.1992z" fill="#197830"/><path d="m20.1992 0h15.1992v100h-15.1992z" fill="#388435"/><path d="m30.3008 0h15.1992v100h-15.1992z" fill="#518f3d"/><path d="m40.3984 0h15.2031v100h-15.2031z" fill="#679946"/><path d="m50.5 0h15.1992v100h-15.1992z" fill="#7da34d"/><path d="m60.6016 0h15.1992v100h-15.1992z" fill="#93ae57"/><path d="m70.6992 0h15.1992v100h-15.1992z" fill="#a9b85f"/><path d="m80.8008 0h15.1992v100h-15.1992z" fill="#bdc268"/><path d="m90.8984 0h15.2031v100h-15.2031z" fill="#d3cc71"/><path d="m101 0h15.1992v100h-15.1992z" fill="#e8d67a"/><path d="m111.102 0h15.1992v100h-15.1992z" fill="#e4cb71"/><path d="m121.199 0h15.1992v100h-15.1992z" fill="#e0c169"/><path d="m131.301 0h15.1992v100h-15.1992z" fill="#dbb760"/><path d="m141.398 0h15.2031v100h-15.2031z" fill="#d7ac57"/><path d="m151.5 0h15.1992v100h-15.1992z" fill="#d2a14f"/><path d="m161.602 0h15.1992v100h-15.1992z" fill="#cd9746"/><path d="m171.699 0h15.1992v100h-15.1992z" fill="#c78c3d"/><path d="m181.801 0h15.1992v100h-15.1992z" fill="#c28235"/><path d="m191.898 0h15.2031v100h-15.2031z" fill="#be782d"/><path d="m202 0h15.1992v100h-15.1992z" fill="#b86d24"/><path d="m212.102 0h15.1992v100h-15.1992z" fill="#b2631b"/><path d="m222.199 0h15.1992v100h-15.1992z" fill="#ac5812"/><path d="m232.301 0h15.1992v100h-15.1992z" fill="#a64d05"/><path d="m242.398 0h15.2031v100h-15.2031z" fill="#a14300"/><path d="m252.5 0h15.1992v100h-15.1992z" fill="#a03f00"/><path d="m262.602 0h15.1992v100h-15.1992z" fill="#a13b00"/><path d="m272.699 0h15.1992v100h-15.1992z" fill="#9f3700"/><path d="m282.801 0h15.1992v100h-15.1992z" fill="#9f3200"/><path d="m292.898 0h15.2031v100h-15.2031z" fill="#9f2d00"/><path d="m303 0h15.1992v100h-15.1992z" fill="#9f2700"/><path d="m313.102 0h15.1992v100h-15.1992z" fill="#9f1f00"/><path d="m323.199 0h15.1992v100h-15.1992z" fill="#9f1a00"/><path d="m333.301 0h15.1992v100h-15.1992z" fill="#9e1100"/><path d="m343.398 0h15.2031v100h-15.2031z" fill="#9e0000"/><path d="m353.5 0h15.1992v100h-15.1992z" fill="#9d1206"/><path d="m363.602 0h15.1992v100h-15.1992z" fill="#9c1b0c"/><path d="m373.699 0h15.1992v100h-15.1992z" fill="#9a2112"/><path d="m383.801 0h15.1992v100h-15.1992z" fill="#9a2916"/><path d="m393.898 0h15.2031v100h-15.2031z" fill="#982f1c"/><path d="m404 0h15.1992v100h-15.1992z" fill="#97341f"/><path d="m414.102 0h15.1992v100h-15.1992z" fill="#953825"/><path d="m424.199 0h15.1992v100h-15.1992z" fill="#943c2a"/><path d="m434.301 0h15.1992v100h-15.1992z" fill="#92402e"/><path d="m444.398 0h15.2031v100h-15.2031z" fill="#904534"/><path d="m454.5 0h15.1992v100h-15.1992z" fill="#8f4938"/><path d="m464.602 0h15.1992v100h-15.1992z" fill="#8c4c3d"/><path d="m474.699 0h15.1992v100h-15.1992z" fill="#8b5041"/><path d="m484.801 0h15.1992v100h-15.1992z" fill="#885346"/><path d="m494.898 0h15.2031v100h-15.2031z" fill="#86574c"/><path d="m505.102 0h15.1992v100h-15.1992z" fill="#845a50"/><path d="m515.199 0h15.1992v100h-15.1992z" fill="#805e55"/><path d="m525.301 0h15.1992v100h-15.1992z" fill="#7d615a"/><path d="m535.398 0h15.2031v100h-15.2031z" fill="#7a645e"/><path d="m545.5 0h15.1992v100h-15.1992z" fill="#776763"/><path d="m555.602 0h15.1992v100h-15.1992z" fill="#726a69"/><path d="m565.699 0h15.1992v100h-15.1992z" fill="#6e6e6e"/><path d="m575.801 0h15.1992v100h-15.1992z" fill="#737373"/><path d="m585.898 0h15.2031v100h-15.2031z" fill="#787878"/><path d="m596 0h15.1992v100h-15.1992z" fill="#7e7e7e"/><path d="m606.102 0h15.1992v100h-15.1992z" fill="#848484"/><path d="m616.199 0h15.1992v100h-15.1992z" fill="#8a8a8a"/><path d="m626.301 0h15.1992v100h-15.1992z" fill="#909090"/><path d="m636.398 0h15.2031v100h-15.2031z" fill="#959595"/><path d="m646.5 0h15.1992v100h-15.1992z" fill="#9b9b9b"/><path d="m656.602 0h15.1992v100h-15.1992z" fill="#a1a1a1"/><path d="m666.699 0h15.1992v100h-15.1992z" fill="#a8a8a8"/><path d="m676.801 0h15.1992v100h-15.1992z" fill="#adadad"/><path d="m686.898 0h15.2031v100h-15.2031z" fill="#b3b3b3"/><path d="m697 0h15.1992v100h-15.1992z" fill="#b9b9b9"/><path d="m707.102 0h15.1992v100h-15.1992z" fill="#bfbfbf"/><path d="m717.199 0h15.1992v100h-15.1992z" fill="#c6c6c6"/><path d="m727.301 0h15.1992v100h-15.1992z" fill="#ccc"/><path d="m737.398 0h15.2031v100h-15.2031z" fill="#d2d2d2"/><path d="m747.5 0h15.1992v100h-15.1992z" fill="#d8d8d8"/><path d="m757.602 0h15.1992v100h-15.1992z" fill="#dfdfdf"/><path d="m767.699 0h15.1992v100h-15.1992z" fill="#e4e4e4"/><path d="m777.801 0h15.1992v100h-15.1992z" fill="#ebebeb"/><path d="m787.898 0h15.2031v100h-15.2031z" fill="#f2f2f2"/><path d="m798 0h15.1992v100h-15.1992z" fill="#f8f8f8"/><path d="m808.102 0h15.1992v100h-15.1992z" fill="#fefefe"/><g fill="#fff"><path d="m818.199 0h15.1992v100h-15.1992z"/><path d="m828.301 0h15.1992v100h-15.1992z"/><path d="m838.398 0h15.2031v100h-15.2031z"/><path d="m848.5 0h15.1992v100h-15.1992z"/><path d="m858.602 0h15.1992v100h-15.1992z"/><path d="m868.699 0h15.1992v100h-15.1992z"/><path d="m878.801 0h15.1992v100h-15.1992z"/><path d="m888.898 0h15.2031v100h-15.2031z"/><path d="m899 0h15.1992v100h-15.1992z"/><path d="m909.102 0h15.1992v100h-15.1992z"/><path d="m919.199 0h15.1992v100h-15.1992z"/><path d="m929.301 0h15.1992v100h-15.1992z"/><path d="m939.398 0h15.2031v100h-15.2031z"/><path d="m949.5 0h15.1992v100h-15.1992z"/><path d="m959.602 0h15.1992v100h-15.1992z"/><path d="m969.699 0h15.1992v100h-15.1992z"/><path d="m979.801 0h15.1992v100h-15.1992z"/><path d="m989.898 0h10.1016v100h-10.1016z"/></g><path d="m0 0h1000v100h-1000z" style="fill:none;stroke:#d3d3d3;stroke-width:1.9;stroke-linecap:round;stroke-linejoin:round;stroke-miterlimit:10"/></g></g><text font-family="StandardSymL" font-size="8.9664" transform="matrix(1 0 0 -1 277.586 30.445)"><tspan x="0" y="0">∞</tspan></text><g clip-path="url(#d)" transform="matrix(1.00003 0 0 1.00003 312.246 29.48)"><g transform="scale(.1)"><path d="m0 0h100v100h-100z" fill="#9cf"/><path d="m0 0h100v100h-100z" style="fill:none;stroke:#d3d3d3;stroke-width:1.9;stroke-linecap:round;stroke-linejoin:round;stroke-miterlimit:10"/></g></g><g clip-path="url(#e)" transform="matrix(1.00003 0 0 1.00003 338.858 29.48)"><g transform="scale(.1)"><path d="m0 0h100v100h-100z" fill="#9cf"/><path d="m0 0h100v100h-100z" style="fill:none;stroke:#d3d3d3;stroke-width:1.9;stroke-linecap:round;stroke-linejoin:round;stroke-miterlimit:10"/></g></g><g clip-path="url(#f)" transform="matrix(1.00003 0 0 1.00003 364.649 29.48)"><g transform="scale(.1)"><path d="m0 0h100v100h-100z" fill="#9cf"/><path d="m0 0h100v100h-100z" style="fill:none;stroke:#d3d3d3;stroke-width:1.9;stroke-linecap:round;stroke-linejoin:round;stroke-miterlimit:10"/></g></g><text font-family="NimbusRomNo9L" font-size="8.9664" transform="matrix(1 0 0 -1 68.956 18.123)"><tspan x="0 6.473741 11.952211 22.16494 26.64814 29.633951 32.12661 36.60981" y="0">DEMprint</tspan></text><g clip-path="url(#g)" transform="matrix(1.00008 0 0 1.00003 151.778 17.157)"><g transform="scale(.1)"><path d="m0 0h15.1992v100h-15.1992z" fill="#356600"/><path d="m10.1016 0h15.1992v100h-15.1992z" fill="#3b6d00"/><path d="m20.1992 0h15.1992v100h-15.1992z" fill="#407400"/><path d="m30.3008 0h15.1992v100h-15.1992z" fill="#467b00"/><path d="m40.3984 0h15.2031v100h-15.2031z" fill="#4c8300"/><path d="m50.5 0h15.1992v100h-15.1992z" fill="#528a00"/><path d="m60.6016 0h15.1992v100h-15.1992z" fill="#599202"/><path d="m70.6992 0h15.1992v100h-15.1992z" fill="#5f9905"/><path d="m80.8008 0h15.1992v100h-15.1992z" fill="#66a109"/><path d="m90.8984 0h15.2031v100h-15.2031z" fill="#6ca80b"/><path d="m101 0h15.1992v100h-15.1992z" fill="#72b00c"/><path d="m111.102 0h15.1992v100h-15.1992z" fill="#79b90e"/><path d="m121.199 0h15.1992v100h-15.1992z" fill="#80c210"/><path d="m131.301 0h15.1992v100h-15.1992z" fill="#8ac627"/><path d="m141.398 0h15.2031v100h-15.2031z" fill="#95cb39"/><path d="m151.5 0h15.1992v100h-15.1992z" fill="#a0d04a"/><path d="m161.602 0h15.1992v100h-15.1992z" fill="#aad558"/><path d="m171.699 0h15.1992v100h-15.1992z" fill="#b5da67"/><path d="m181.801 0h15.1992v100h-15.1992z" fill="#bfdf75"/><path d="m191.898 0h15.2031v100h-15.2031z" fill="#c9e482"/><path d="m202 0h15.1992v100h-15.1992z" fill="#d3e88f"/><path d="m212.102 0h15.1992v100h-15.1992z" fill="#dded9c"/><path d="m222.199 0h15.1992v100h-15.1992z" fill="#e7f3a9"/><path d="m232.301 0h15.1992v100h-15.1992z" fill="#f0f7b7"/><path d="m242.398 0h15.2031v100h-15.2031z" fill="#f9fcc4"/><path d="m252.5 0h15.1992v100h-15.1992z" fill="#fffdc8"/><path d="m262.602 0h15.1992v100h-15.1992z" fill="#fffac3"/><path d="m272.699 0h15.1992v100h-15.1992z" fill="#fff8bd"/><path d="m282.801 0h15.1992v100h-15.1992z" fill="#fff5b7"/><path d="m292.898 0h15.2031v100h-15.2031z" fill="#fff2b2"/><path d="m303 0h15.1992v100h-15.1992z" fill="#fff0ac"/><path d="m313.102 0h15.1992v100h-15.1992z" fill="#ffeda7"/><path d="m323.199 0h15.1992v100h-15.1992z" fill="#ffeaa1"/><path d="m333.301 0h15.1992v100h-15.1992z" fill="#ffe79b"/><path d="m343.398 0h15.2031v100h-15.2031z" fill="#ffe496"/><path d="m353.5 0h15.1992v100h-15.1992z" fill="#ffe291"/><path d="m363.602 0h15.1992v100h-15.1992z" fill="#fedf8c"/><path d="m373.699 0h15.1992v100h-15.1992z" fill="#fddd86"/><path d="m383.801 0h15.1992v100h-15.1992z" fill="#fcda81"/><path d="m393.898 0h15.2031v100h-15.2031z" fill="#fdd77b"/><path d="m404 0h15.1992v100h-15.1992z" fill="#fcd575"/><path d="m414.102 0h15.1992v100h-15.1992z" fill="#fbd170"/><path d="m424.199 0h15.1992v100h-15.1992z" fill="#facf6a"/><path d="m434.301 0h15.1992v100h-15.1992z" fill="#f9cc65"/><path d="m444.398 0h15.2031v100h-15.2031z" fill="#f9c95e"/><path d="m454.5 0h15.1992v100h-15.1992z" fill="#f8c759"/><path d="m464.602 0h15.1992v100h-15.1992z" fill="#f7c453"/><path d="m474.699 0h15.1992v100h-15.1992z" fill="#f7c24e"/><path d="m484.801 0h15.1992v100h-15.1992z" fill="#f6bf48"/><path d="m494.898 0h15.2031v100h-15.2031z" fill="#f4bd41"/><path d="m505.102 0h15.1992v100h-15.1992z" fill="#e9b13b"/><path d="m515.199 0h15.1992v100h-15.1992z" fill="#dda537"/><path d="m525.301 0h15.1992v100h-15.1992z" fill="#cf9932"/><path d="m535.398 0h15.2031v100h-15.2031z" fill="#c48d2e"/><path d="m545.5 0h15.1992v100h-15.1992z" fill="#b8822a"/><path d="m555.602 0h15.1992v100h-15.1992z" fill="#ac7625"/><path d="m565.699 0h15.1992v100h-15.1992z" fill="#a16b1f"/><path d="m575.801 0h15.1992v100h-15.1992z" fill="#95601c"/><path d="m585.898 0h15.2031v100h-15.2031z" fill="#895517"/><path d="m596 0h15.1992v100h-15.1992z" fill="#7f4a14"/><path d="m606.102 0h15.1992v100h-15.1992z" fill="#733f10"/><path d="m616.199 0h15.1992v100h-15.1992z" fill="#68360c"/><path d="m626.301 0h15.1992v100h-15.1992z" fill="#66340b"/><path d="m636.398 0h15.2031v100h-15.2031z" fill="#66340a"/><path d="m646.5 0h15.1992v100h-15.1992z" fill="#663409"/><path d="m656.602 0h15.1992v100h-15.1992z" fill="#663408"/><path d="m666.699 0h15.1992v100h-15.1992z" fill="#663405"/><path d="m676.801 0h15.1992v100h-15.1992z" fill="#663405"/><path d="m686.898 0h15.2031v100h-15.2031z" fill="#663404"/><path d="m697 0h15.1992v100h-15.1992z" fill="#663403"/><path d="m707.102 0h15.1992v100h-15.1992z" fill="#663402"/><g fill="#663400"><path d="m717.199 0h15.1992v100h-15.1992z"/><path d="m727.301 0h15.1992v100h-15.1992z"/><path d="m737.398 0h15.2031v100h-15.2031z"/></g><path d="m747.5 0h15.1992v100h-15.1992z" fill="#693704"/><path d="m757.602 0h15.1992v100h-15.1992z" fill="#703e10"/><path d="m767.699 0h15.1992v100h-15.1992z" fill="#764519"/><path d="m777.801 0h15.1992v100h-15.1992z" fill="#7f4c23"/><path d="m787.898 0h15.2031v100h-15.2031z" fill="#86542c"/><path d="m798 0h15.1992v100h-15.1992z" fill="#8b5c36"/><path d="m808.102 0h15.1992v100h-15.1992z" fill="#92643f"/><path d="m818.199 0h15.1992v100h-15.1992z" fill="#996b48"/><path d="m828.301 0h15.1992v100h-15.1992z" fill="#a07452"/><path d="m838.398 0h15.2031v100h-15.2031z" fill="#a67c5c"/><path d="m848.5 0h15.1992v100h-15.1992z" fill="#ac8466"/><path d="m858.602 0h15.1992v100h-15.1992z" fill="#b28c70"/><path d="m868.699 0h15.1992v100h-15.1992z" fill="#b8947a"/><path d="m878.801 0h15.1992v100h-15.1992z" fill="#be9d85"/><path d="m888.898 0h15.2031v100h-15.2031z" fill="#c5a690"/><path d="m899 0h15.1992v100h-15.1992z" fill="#cbae9a"/><path d="m909.102 0h15.1992v100h-15.1992z" fill="#d0b7a6"/><path d="m919.199 0h15.1992v100h-15.1992z" fill="#d6c0b0"/><path d="m929.301 0h15.1992v100h-15.1992z" fill="#dcc8bb"/><path d="m939.398 0h15.2031v100h-15.2031z" fill="#e3d2c6"/><path d="m949.5 0h15.1992v100h-15.1992z" fill="#e8dad1"/><path d="m959.602 0h15.1992v100h-15.1992z" fill="#eee3dc"/><path d="m969.699 0h15.1992v100h-15.1992z" fill="#f3ece8"/><path d="m979.801 0h15.1992v100h-15.1992z" fill="#f9f5f3"/><path d="m989.898 0h10.1016v100h-10.1016z" fill="#fff"/><path d="m0 0h1000v100h-1000z" style="fill:none;stroke:#d3d3d3;stroke-width:1.9;stroke-linecap:round;stroke-linejoin:round;stroke-miterlimit:10"/></g></g><text font-family="StandardSymL" font-size="8.9664" transform="matrix(1 0 0 -1 277.586 18.123)"><tspan x="0" y="0">∞</tspan></text><g clip-path="url(#h)" transform="matrix(1.00003 0 0 1.00003 312.246 17.157)"><g transform="scale(.1)"><path d="m0 0h100v100h-100z" fill="#356600"/><path d="m0 0h100v100h-100z" style="fill:none;stroke:#d3d3d3;stroke-width:1.9;stroke-linecap:round;stroke-linejoin:round;stroke-miterlimit:10"/></g></g><g clip-path="url(#i)" transform="matrix(1.00003 0 0 1.00003 338.858 17.157)"><g transform="scale(.1)"><path d="m0 0h100v100h-100z" fill="#356600"/><path d="m0 0h100v100h-100z" style="fill:none;stroke:#d3d3d3;stroke-width:1.9;stroke-linecap:round;stroke-linejoin:round;stroke-miterlimit:10"/></g></g><g clip-path="url(#j)" transform="matrix(1.00003 0 0 1.00003 364.649 17.157)"><g transform="scale(.1)"><path d="m0 0h100v100h-100z" fill="#fff"/><path d="m0 0h100v100h-100z" style="fill:none;stroke:#d3d3d3;stroke-width:1.9;stroke-linecap:round;stroke-linejoin:round;stroke-miterlimit:10"/></g></g><text font-family="NimbusRomNo9L" font-size="8.9664" transform="matrix(1 0 0 -1 68.956 5.8)"><tspan x="0 6.473741 11.952211 22.16494 25.65287 29.633951 32.619762 36.600845 40.581928" y="0">DEMscreen</tspan></text><g clip-path="url(#k)" transform="matrix(1.00008 0 0 1.00003 151.778 4.835)"><g transform="scale(.1)"><path d="m0 0h15.1992v100h-15.1992z" fill="#048432"/><path d="m10.1016 0h15.1992v100h-15.1992z" fill="#0b8931"/><path d="m20.1992 0h15.1992v100h-15.1992z" fill="#128f2e"/><path d="m30.3008 0h15.1992v100h-15.1992z" fill="#17952d"/><path d="m40.3984 0h15.2031v100h-15.2031z" fill="#1c9a2a"/><path d="m50.5 0h15.1992v100h-15.1992z" fill="#1fa027"/><path d="m60.6016 0h15.1992v100h-15.1992z" fill="#22a622"/><path d="m70.6992 0h15.1992v100h-15.1992z" fill="#25ac1e"/><path d="m80.8008 0h15.1992v100h-15.1992z" fill="#28b218"/><path d="m90.8984 0h15.2031v100h-15.2031z" fill="#2db811"/><path d="m101 0h15.1992v100h-15.1992z" fill="#2fbf08"/><path d="m111.102 0h15.1992v100h-15.1992z" fill="#33c500"/><path d="m121.199 0h15.1992v100h-15.1992z" fill="#36cb00"/><path d="m131.301 0h15.1992v100h-15.1992z" fill="#49cf00"/><path d="m141.398 0h15.2031v100h-15.2031z" fill="#5fd30c"/><path d="m151.5 0h15.1992v100h-15.1992z" fill="#70d51f"/><path d="m161.602 0h15.1992v100h-15.1992z" fill="#80d92a"/><path d="m171.699 0h15.1992v100h-15.1992z" fill="#90dc34"/><path d="m181.801 0h15.1992v100h-15.1992z" fill="#9edf3b"/><path d="m191.898 0h15.2031v100h-15.2031z" fill="#ace245"/><path d="m202 0h15.1992v100h-15.1992z" fill="#bae44c"/><path d="m212.102 0h15.1992v100h-15.1992z" fill="#c8e754"/><path d="m222.199 0h15.1992v100h-15.1992z" fill="#d5ea5b"/><path d="m232.301 0h15.1992v100h-15.1992z" fill="#e2ec62"/><path d="m242.398 0h15.2031v100h-15.2031z" fill="#eeef69"/><path d="m252.5 0h15.1992v100h-15.1992z" fill="#f4ef6c"/><path d="m262.602 0h15.1992v100h-15.1992z" fill="#f4ec6a"/><path d="m272.699 0h15.1992v100h-15.1992z" fill="#f4eb68"/><path d="m282.801 0h15.1992v100h-15.1992z" fill="#f5e866"/><path d="m292.898 0h15.2031v100h-15.2031z" fill="#f6e664"/><path d="m303 0h15.1992v100h-15.1992z" fill="#f6e463"/><path d="m313.102 0h15.1992v100h-15.1992z" fill="#f6e261"/><path d="m323.199 0h15.1992v100h-15.1992z" fill="#f5e160"/><path d="m333.301 0h15.1992v100h-15.1992z" fill="#f6de5d"/><path d="m343.398 0h15.2031v100h-15.2031z" fill="#f5dc5b"/><path d="m353.5 0h15.1992v100h-15.1992z" fill="#f6da5a"/><path d="m363.602 0h15.1992v100h-15.1992z" fill="#f5d858"/><path d="m373.699 0h15.1992v100h-15.1992z" fill="#f4d656"/><path d="m383.801 0h15.1992v100h-15.1992z" fill="#f4d354"/><path d="m393.898 0h15.2031v100h-15.2031z" fill="#f5d152"/><path d="m404 0h15.1992v100h-15.1992z" fill="#f5d051"/><path d="m414.102 0h15.1992v100h-15.1992z" fill="#f6cd4f"/><path d="m424.199 0h15.1992v100h-15.1992z" fill="#f5cc4e"/><path d="m434.301 0h15.1992v100h-15.1992z" fill="#f6c94b"/><path d="m444.398 0h15.2031v100h-15.2031z" fill="#f5c649"/><path d="m454.5 0h15.1992v100h-15.1992z" fill="#f6c548"/><path d="m464.602 0h15.1992v100h-15.1992z" fill="#f4c346"/><path d="m474.699 0h15.1992v100h-15.1992z" fill="#f4c144"/><path d="m484.801 0h15.1992v100h-15.1992z" fill="#f4bf42"/><path d="m494.898 0h15.2031v100h-15.2031z" fill="#f4bd41"/><path d="m505.102 0h15.1992v100h-15.1992z" fill="#f1b940"/><path d="m515.199 0h15.1992v100h-15.1992z" fill="#edb53f"/><path d="m525.301 0h15.1992v100h-15.1992z" fill="#e9b13e"/><path d="m535.398 0h15.2031v100h-15.2031z" fill="#e5ad3c"/><path d="m545.5 0h15.1992v100h-15.1992z" fill="#e2aa3b"/><path d="m555.602 0h15.1992v100h-15.1992z" fill="#dda63a"/><path d="m565.699 0h15.1992v100h-15.1992z" fill="#d9a23a"/><path d="m575.801 0h15.1992v100h-15.1992z" fill="#d59f39"/><path d="m585.898 0h15.2031v100h-15.2031z" fill="#d19b38"/><path d="m596 0h15.1992v100h-15.1992z" fill="#cf9837"/><path d="m606.102 0h15.1992v100h-15.1992z" fill="#cb9336"/><path d="m616.199 0h15.1992v100h-15.1992z" fill="#c78f36"/><path d="m626.301 0h15.1992v100h-15.1992z" fill="#c38c35"/><path d="m636.398 0h15.2031v100h-15.2031z" fill="#c08834"/><path d="m646.5 0h15.1992v100h-15.1992z" fill="#bc8532"/><path d="m656.602 0h15.1992v100h-15.1992z" fill="#b78231"/><path d="m666.699 0h15.1992v100h-15.1992z" fill="#b37d31"/><path d="m676.801 0h15.1992v100h-15.1992z" fill="#b07a30"/><path d="m686.898 0h15.2031v100h-15.2031z" fill="#ac772e"/><path d="m697 0h15.1992v100h-15.1992z" fill="#aa732e"/><path d="m707.102 0h15.1992v100h-15.1992z" fill="#a6702c"/><path d="m717.199 0h15.1992v100h-15.1992z" fill="#a26c2b"/><path d="m727.301 0h15.1992v100h-15.1992z" fill="#9f692a"/><path d="m737.398 0h15.2031v100h-15.2031z" fill="#9b652a"/><path d="m747.5 0h15.1992v100h-15.1992z" fill="#9c662e"/><path d="m757.602 0h15.1992v100h-15.1992z" fill="#a16c36"/><path d="m767.699 0h15.1992v100h-15.1992z" fill="#a5723e"/><path d="m777.801 0h15.1992v100h-15.1992z" fill="#aa7846"/><path d="m787.898 0h15.2031v100h-15.2031z" fill="#ae7e4e"/><path d="m798 0h15.1992v100h-15.1992z" fill="#b38457"/><path d="m808.102 0h15.1992v100h-15.1992z" fill="#b78a5f"/><path d="m818.199 0h15.1992v100h-15.1992z" fill="#bc9067"/><path d="m828.301 0h15.1992v100h-15.1992z" fill="#c1976f"/><path d="m838.398 0h15.2031v100h-15.2031z" fill="#c59d78"/><path d="m848.5 0h15.1992v100h-15.1992z" fill="#c9a380"/><path d="m858.602 0h15.1992v100h-15.1992z" fill="#cda988"/><path d="m868.699 0h15.1992v100h-15.1992z" fill="#d1af91"/><path d="m878.801 0h15.1992v100h-15.1992z" fill="#d5b69a"/><path d="m888.898 0h15.2031v100h-15.2031z" fill="#dabda3"/><path d="m899 0h15.1992v100h-15.1992z" fill="#ddc3ad"/><path d="m909.102 0h15.1992v100h-15.1992z" fill="#e1c9b5"/><path d="m919.199 0h15.1992v100h-15.1992z" fill="#e5d0be"/><path d="m929.301 0h15.1992v100h-15.1992z" fill="#e9d6c7"/><path d="m939.398 0h15.2031v100h-15.2031z" fill="#edddd1"/><path d="m949.5 0h15.1992v100h-15.1992z" fill="#f0e3d9"/><path d="m959.602 0h15.1992v100h-15.1992z" fill="#f4eae2"/><path d="m969.699 0h15.1992v100h-15.1992z" fill="#f7f1ec"/><path d="m979.801 0h15.1992v100h-15.1992z" fill="#fbf8f5"/><path d="m989.898 0h10.1016v100h-10.1016z" fill="#fff"/><path d="m0 0h1000v100h-1000z" style="fill:none;stroke:#d3d3d3;stroke-width:1.9;stroke-linecap:round;stroke-linejoin:round;stroke-miterlimit:10"/></g></g><text font-family="StandardSymL" font-size="8.9664" transform="matrix(1 0 0 -1 277.586 5.8)"><tspan x="0" y="0">∞</tspan></text><g clip-path="url(#l)" transform="matrix(1.00003 0 0 1.00003 312.246 4.835)"><g transform="scale(.1)"><path d="m0 0h100v100h-100z" fill="#048433"/><path d="m0 0h100v100h-100z" style="fill:none;stroke:#d3d3d3;stroke-width:1.9;stroke-linecap:round;stroke-linejoin:round;stroke-miterlimit:10"/></g></g><g clip-path="url(#m)" transform="matrix(1.00003 0 0 1.00003 338.858 4.835)"><g transform="scale(.1)"><path d="m0 0h100v100h-100z" fill="#fff"/><path d="m0 0h100v100h-100z" style="fill:none;stroke:#d3d3d3;stroke-width:1.9;stroke-linecap:round;stroke-linejoin:round;stroke-miterlimit:10"/></g></g><g clip-path="url(#n)" transform="matrix(1.00003 0 0 1.00003 364.649 4.835)"><g transform="scale(.1)"><path d="m0 0h100v100h-100z" fill="#048433"/><path d="m0 0h100v100h-100z" style="fill:none;stroke:#d3d3d3;stroke-width:1.9;stroke-linecap:round;stroke-linejoin:round;stroke-miterlimit:10"/></g></g><path d="m0 0h382.271" fill="none" stroke="#000" stroke-miterlimit="10" stroke-width=".797" transform="translate(0 .398)"/></g></g></svg>