<svg height="65.333336" viewBox="0 0 514.66669 65.333336" width="514.66669" xmlns="http://www.w3.org/2000/svg" xmlns:xlink="http://www.w3.org/1999/xlink"><clipPath id="a"><path d="m0 0h384v47h-384z"/></clipPath><clipPath id="b"><path d="m0 0h16322.79v48.376h-16322.79z"/></clipPath><clipPath id="c"><path d="m0 0h100v10h-100z"/></clipPath><g clip-path="url(#a)" transform="matrix(1.3333333 0 0 -1.3333333 1.3279999668 63.9999997)"><g clip-path="url(#b)" transform="translate(1)"><text font-family="NimbusRomNo9L" font-size="9.9626" transform="matrix(1 0 0 -1 0 40.008)"><tspan x="0 5.728495 10.709795 16.249001 19.018604 25.932648 30.913948" y="0">Table1.</tspan></text><text font-family="NimbusRomNo9L" font-size="9.9626" transform="matrix(1 0 0 -1 36.493 40.008)"><tspan x="0 5.539206 9.9626 14.9439 19.367294 27.118196 34.032242 39.013542 46.485493 53.67849 58.65979 61.42939 66.41069 73.882645 82.739395 85.508995 90.490295 95.471596 99.894989 102.6646 105.4342 110.26606 117.73801 121.05555 126.03685 131.01816 135.99945 140.98076 144.29829 149.55855 152.8761 157.29948 160.06909 164.49249 168.91588 172.79134 177.21472 184.68668 189.66798 194.64928 199.63058 204.05397 209.86217 214.28557 221.75751 226.73882 231.72011 236.14351 243.61546 246.38506 249.15466 253.57806 258.00146 262.98276 266.85822 271.28159" y="0">SchemebyAntonMikhailov(2019);releasedunderanopenlicense.</tspan></text><path d="m0 0h382.271" fill="none" stroke="#000" stroke-miterlimit="10" stroke-width=".797" transform="translate(0 34.03)"/><text font-family="LMSans10" font-size="8.9664" font-weight="bold" transform="matrix(1 0 0 -1 21.427 23.173)"><tspan x="0 5.750152 10.233353 15.542357 67.046257 72.52562 76.909294 81.940346 86.523071 94.29425 165.63182 171.66441 176.37178 178.66269 183.24542 186.86964 190.49385 246.83064 255.59799 260.30536 268.07922 292.87222 319.75708 346.10303" y="0">TypeSchemePaletteMaxnNBF</tspan></text><path d="m0 0h382.271" fill="none" stroke="#000" stroke-miterlimit="10" stroke-width=".498" transform="translate(0 17.871)"/><text font-family="NimbusRomNo9L" font-size="8.9664" transform="matrix(1 0 0 -1 5.978 5.8)"><tspan x="0 4.985318 8.9664 13.4496 17.9328 21.913881 26.397081 28.88974 31.382401 35.363483 62.979992 65.472656 69.955856 72.941666 77.424866" y="0">Sequentialturbo</tspan></text><g clip-path="url(#c)" transform="matrix(1.00008 0 0 1.00003 151.778 4.835)"><g transform="scale(.1)"><path d="m0 0h15.1992v100h-15.1992z" fill="#30123b"/><path d="m10.1016 0h15.1992v100h-15.1992z" fill="#34194e"/><path d="m20.1992 0h15.1992v100h-15.1992z" fill="#362162"/><path d="m30.3008 0h15.1992v100h-15.1992z" fill="#382873"/><path d="m40.3984 0h15.2031v100h-15.2031z" fill="#3b3083"/><path d="m50.5 0h15.1992v100h-15.1992z" fill="#3d3792"/><path d="m60.6016 0h15.1992v100h-15.1992z" fill="#3f3ea1"/><path d="m70.6992 0h15.1992v100h-15.1992z" fill="#3f45ae"/><path d="m80.8008 0h15.1992v100h-15.1992z" fill="#414dba"/><path d="m90.8984 0h15.2031v100h-15.2031z" fill="#4254c6"/><path d="m101 0h15.1992v100h-15.1992z" fill="#435bd0"/><path d="m111.102 0h15.1992v100h-15.1992z" fill="#4462d9"/><path d="m121.199 0h15.1992v100h-15.1992z" fill="#4468e2"/><path d="m131.301 0h15.1992v100h-15.1992z" fill="#446fe9"/><path d="m141.398 0h15.2031v100h-15.2031z" fill="#4476f0"/><path d="m151.5 0h15.1992v100h-15.1992z" fill="#437cf5"/><path d="m161.602 0h15.1992v100h-15.1992z" fill="#4383fa"/><path d="m171.699 0h15.1992v100h-15.1992z" fill="#4289fd"/><path d="m181.801 0h15.1992v100h-15.1992z" fill="#4090ff"/><path d="m191.898 0h15.2031v100h-15.2031z" fill="#3d96ff"/><path d="m202 0h15.1992v100h-15.1992z" fill="#3a9dff"/><path d="m212.102 0h15.1992v100h-15.1992z" fill="#36a4fc"/><path d="m222.199 0h15.1992v100h-15.1992z" fill="#31abf9"/><path d="m232.301 0h15.1992v100h-15.1992z" fill="#2db2f5"/><path d="m242.398 0h15.2031v100h-15.2031z" fill="#28b8f0"/><path d="m252.5 0h15.1992v100h-15.1992z" fill="#25beea"/><path d="m262.602 0h15.1992v100h-15.1992z" fill="#20c4e3"/><path d="m272.699 0h15.1992v100h-15.1992z" fill="#1ecadc"/><path d="m282.801 0h15.1992v100h-15.1992z" fill="#1ccfd5"/><path d="m292.898 0h15.2031v100h-15.2031z" fill="#19d4ce"/><path d="m303 0h15.1992v100h-15.1992z" fill="#19d9c7"/><path d="m313.102 0h15.1992v100h-15.1992z" fill="#1adec1"/><path d="m323.199 0h15.1992v100h-15.1992z" fill="#1ce2b9"/><path d="m333.301 0h15.1992v100h-15.1992z" fill="#1ee6b3"/><path d="m343.398 0h15.2031v100h-15.2031z" fill="#23e9ad"/><path d="m353.5 0h15.1992v100h-15.1992z" fill="#28eca6"/><path d="m363.602 0h15.1992v100h-15.1992z" fill="#2eef9e"/><path d="m373.699 0h15.1992v100h-15.1992z" fill="#36f295"/><path d="m383.801 0h15.1992v100h-15.1992z" fill="#3ef58c"/><path d="m393.898 0h15.2031v100h-15.2031z" fill="#47f882"/><path d="m404 0h15.1992v100h-15.1992z" fill="#51fa7a"/><path d="m414.102 0h15.1992v100h-15.1992z" fill="#5afc71"/><path d="m424.199 0h15.1992v100h-15.1992z" fill="#64fd67"/><path d="m434.301 0h15.1992v100h-15.1992z" fill="#6ffe5e"/><path d="m444.398 0h15.2031v100h-15.2031z" fill="#79ff56"/><path d="m454.5 0h15.1992v100h-15.1992z" fill="#83ff4d"/><path d="m464.602 0h15.1992v100h-15.1992z" fill="#8cff45"/><path d="m474.699 0h15.1992v100h-15.1992z" fill="#94ff3e"/><path d="m484.801 0h15.1992v100h-15.1992z" fill="#9cff38"/><path d="m494.898 0h15.2031v100h-15.2031z" fill="#a4fe32"/><path d="m505.102 0h15.1992v100h-15.1992z" fill="#abfc2f"/><path d="m515.199 0h15.1992v100h-15.1992z" fill="#b2fa2c"/><path d="m525.301 0h15.1992v100h-15.1992z" fill="#b8f82a"/><path d="m535.398 0h15.2031v100h-15.2031z" fill="#bff529"/><path d="m545.5 0h15.1992v100h-15.1992z" fill="#c6f229"/><path d="m555.602 0h15.1992v100h-15.1992z" fill="#ccee2a"/><path d="m565.699 0h15.1992v100h-15.1992z" fill="#d2ea2b"/><path d="m575.801 0h15.1992v100h-15.1992z" fill="#d8e62c"/><path d="m585.898 0h15.2031v100h-15.2031z" fill="#dee02f"/><path d="m596 0h15.1992v100h-15.1992z" fill="#e3dc30"/><path d="m606.102 0h15.1992v100h-15.1992z" fill="#e8d732"/><path d="m616.199 0h15.1992v100h-15.1992z" fill="#ecd232"/><path d="m626.301 0h15.1992v100h-15.1992z" fill="#f0cc34"/><path d="m636.398 0h15.2031v100h-15.2031z" fill="#f4c734"/><path d="m646.5 0h15.1992v100h-15.1992z" fill="#f7c235"/><path d="m656.602 0h15.1992v100h-15.1992z" fill="#f9bc34"/><path d="m666.699 0h15.1992v100h-15.1992z" fill="#fbb632"/><path d="m676.801 0h15.1992v100h-15.1992z" fill="#fdb030"/><path d="m686.898 0h15.2031v100h-15.2031z" fill="#fea92e"/><path d="m697 0h15.1992v100h-15.1992z" fill="#fea22b"/><path d="m707.102 0h15.1992v100h-15.1992z" fill="#fe9b28"/><path d="m717.199 0h15.1992v100h-15.1992z" fill="#fe9426"/><path d="m727.301 0h15.1992v100h-15.1992z" fill="#fd8c23"/><path d="m737.398 0h15.2031v100h-15.2031z" fill="#fc841f"/><path d="m747.5 0h15.1992v100h-15.1992z" fill="#fa7c1c"/><path d="m757.602 0h15.1992v100h-15.1992z" fill="#f97419"/><path d="m767.699 0h15.1992v100h-15.1992z" fill="#f66c15"/><path d="m777.801 0h15.1992v100h-15.1992z" fill="#f46512"/><path d="m787.898 0h15.2031v100h-15.2031z" fill="#f15e0f"/><path d="m798 0h15.1992v100h-15.1992z" fill="#ee570c"/><path d="m808.102 0h15.1992v100h-15.1992z" fill="#eb500a"/><path d="m818.199 0h15.1992v100h-15.1992z" fill="#e74a08"/><path d="m828.301 0h15.1992v100h-15.1992z" fill="#e34406"/><path d="m838.398 0h15.2031v100h-15.2031z" fill="#df3f05"/><path d="m848.5 0h15.1992v100h-15.1992z" fill="#da3904"/><path d="m858.602 0h15.1992v100h-15.1992z" fill="#d63404"/><path d="m868.699 0h15.1992v100h-15.1992z" fill="#d12f03"/><path d="m878.801 0h15.1992v100h-15.1992z" fill="#cb2b02"/><path d="m888.898 0h15.2031v100h-15.2031z" fill="#c52601"/><path d="m899 0h15.1992v100h-15.1992z" fill="#bf2200"/><path d="m909.102 0h15.1992v100h-15.1992z" fill="#b91e01"/><path d="m919.199 0h15.1992v100h-15.1992z" fill="#b21a00"/><path d="m929.301 0h15.1992v100h-15.1992z" fill="#ab1500"/><path d="m939.398 0h15.2031v100h-15.2031z" fill="#a41200"/><path d="m949.5 0h15.1992v100h-15.1992z" fill="#9c0e00"/><path d="m959.602 0h15.1992v100h-15.1992z" fill="#940b00"/><path d="m969.699 0h15.1992v100h-15.1992z" fill="#8c0801"/><path d="m979.801 0h15.1992v100h-15.1992z" fill="#830602"/><path d="m989.898 0h10.1016v100h-10.1016z" fill="#7a0303"/><path d="m0 0h1000v100h-1000z" style="fill:none;stroke:#d3d3d3;stroke-width:1.9;stroke-linecap:round;stroke-linejoin:round;stroke-miterlimit:10"/></g></g><text font-family="StandardSymL" font-size="8.9664" transform="matrix(1 0 0 -1 277.586 5.8)"><tspan x="0" y="0">∞</tspan></text><text font-family="NimbusRomNo9L" font-size="8.9664" transform="matrix(1 0 0 -1 315.004 5.8)"><tspan x="0 26.612276 52.399643" y="0">–––</tspan></text><path d="m0 0h382.271" fill="none" stroke="#000" stroke-miterlimit="10" stroke-width=".797" transform="translate(0 .398)"/></g></g></svg>