<svg height="98.666664" viewBox="0 0 502.66666 98.666664" width="502.66666" xmlns="http://www.w3.org/2000/svg" xmlns:xlink="http://www.w3.org/1999/xlink"><clipPath id="a"><path d="m0 0h375v72h-375z"/></clipPath><clipPath id="b"><path d="m0 0h16322.79v73.022h-16322.79z"/></clipPath><clipPath id="c"><path d="m0 0h100v10h-100z"/></clipPath><clipPath id="d"><path d="m0 0h10v10h-10z"/></clipPath><clipPath id="e"><path d="m0 0h10v10h-10z"/></clipPath><clipPath id="f"><path d="m0 0h10v10h-10z"/></clipPath><clipPath id="g"><path d="m0 0h100v10h-100z"/></clipPath><clipPath id="h"><path d="m0 0h10v10h-10z"/></clipPath><clipPath id="i"><path d="m0 0h10v10h-10z"/></clipPath><clipPath id="j"><path d="m0 0h10v10h-10z"/></clipPath><clipPath id="k"><path d="m0 0h100v10h-100z"/></clipPath><clipPath id="l"><path d="m0 0h10v10h-10z"/></clipPath><clipPath id="m"><path d="m0 0h10v10h-10z"/></clipPath><clipPath id="n"><path d="m0 0h10v10h-10z"/></clipPath><g clip-path="url(#a)" transform="matrix(1.3333333 0 0 -1.3333333 1.3279999668 97.3333337)"><g clip-path="url(#b)" transform="translate(1)"><text font-family="NimbusRomNo9L" font-size="9.9626" transform="matrix(1 0 0 -1 0 64.653)"><tspan x="0 5.728495 10.709795 16.249001 19.018604 25.932648 30.913948" y="0">Table2.</tspan></text><text font-family="NimbusRomNo9L" font-size="9.9626" transform="matrix(1 0 0 -1 36.493 64.653)"><tspan x="0 5.539206 9.9626 14.9439 19.367294 27.118196 31.541592 37.907692 42.888992 50.360943 56.448093 61.42939 66.41069 74.161598 78.584991 84.951088 92.144089 96.31842 103.51141 107.93481 114.84885 118.1664 123.1477 128.129 133.11031 138.0916 143.8998 151.09279 153.8624 156.632 164.10394 169.08525 173.50864 176.82619 184.57709 187.34669 191.22214 195.0976 197.8672 202.8485 210.32045 215.30174 218.61929 223.04269 228.02399 230.79359 235.21698 242.68893 245.45854 252.9305 257.91177 260.6814 264.55685 267.32645 270.64398 273.4136 278.19565 283.17694 285.94653 290.36993" y="0">SchemesbyThomasDewez(2004)withpermissiongrantedtodistribute.</tspan></text><path d="m0 0h373.766" fill="none" stroke="#000" stroke-miterlimit="10" stroke-width=".797" transform="translate(0 58.676)"/><text font-family="LMSans10" font-size="8.9664" font-weight="bold" transform="matrix(1 0 0 -1 17.175 47.819)"><tspan x="0 5.750152 10.233353 15.542357 62.796181 68.275551 72.659225 77.690269 82.272995 90.044174 161.38174 167.41434 172.1217 174.41261 178.99535 182.61957 186.24379 242.58057 251.34792 256.05527 263.82913 288.62213 315.50699 341.84399" y="0">TypeSchemePaletteMaxnNBF</tspan></text><path d="m0 0h373.766" fill="none" stroke="#000" stroke-miterlimit="10" stroke-width=".498" transform="translate(0 42.517)"/><text font-family="NimbusRomNo9L" font-size="8.9664" transform="matrix(1 0 0 -1 5.978 30.445)"><tspan x="0 4.985318 8.9664 13.4496 17.9328 21.913881 26.397081 28.88974 31.382401 35.363483 54.470879 60.944622 66.423088 76.635818 81.119019 85.602219 89.090149 91.582809 95.563889" y="0">SequentialDEMposter</tspan></text><g clip-path="url(#c)" transform="matrix(1.00008 0 0 1.00003 143.274 29.48)"><g transform="scale(.1)"><path d="m0 0h15.1992v100h-15.1992z" fill="#016046"/><path d="m10.1016 0h15.1992v100h-15.1992z" fill="#177830"/><path d="m20.1992 0h15.1992v100h-15.1992z" fill="#378435"/><path d="m30.3008 0h15.1992v100h-15.1992z" fill="#518f3d"/><path d="m40.3984 0h15.2031v100h-15.2031z" fill="#679946"/><path d="m50.5 0h15.1992v100h-15.1992z" fill="#7da34d"/><path d="m60.6016 0h15.1992v100h-15.1992z" fill="#92ae56"/><path d="m70.6992 0h15.1992v100h-15.1992z" fill="#a8b85f"/><path d="m80.8008 0h15.1992v100h-15.1992z" fill="#bcc268"/><path d="m90.8984 0h15.2031v100h-15.2031z" fill="#d2cc71"/><path d="m101 0h15.1992v100h-15.1992z" fill="#e7d67a"/><path d="m111.102 0h15.1992v100h-15.1992z" fill="#e3cb71"/><path d="m121.199 0h15.1992v100h-15.1992z" fill="#dfc169"/><path d="m131.301 0h15.1992v100h-15.1992z" fill="#dbb760"/><path d="m141.398 0h15.2031v100h-15.2031z" fill="#d6ac57"/><path d="m151.5 0h15.1992v100h-15.1992z" fill="#d2a14f"/><path d="m161.602 0h15.1992v100h-15.1992z" fill="#cd9746"/><path d="m171.699 0h15.1992v100h-15.1992z" fill="#c78c3d"/><path d="m181.801 0h15.1992v100h-15.1992z" fill="#c28235"/><path d="m191.898 0h15.2031v100h-15.2031z" fill="#bd782d"/><path d="m202 0h15.1992v100h-15.1992z" fill="#b86d24"/><path d="m212.102 0h15.1992v100h-15.1992z" fill="#b2631a"/><path d="m222.199 0h15.1992v100h-15.1992z" fill="#ac5811"/><path d="m232.301 0h15.1992v100h-15.1992z" fill="#a64d05"/><path d="m242.398 0h15.2031v100h-15.2031z" fill="#a14300"/><path d="m252.5 0h15.1992v100h-15.1992z" fill="#a03f00"/><path d="m262.602 0h15.1992v100h-15.1992z" fill="#a03a00"/><path d="m272.699 0h15.1992v100h-15.1992z" fill="#9f3600"/><path d="m282.801 0h15.1992v100h-15.1992z" fill="#9f3000"/><path d="m292.898 0h15.2031v100h-15.2031z" fill="#9f2b00"/><path d="m303 0h15.1992v100h-15.1992z" fill="#9f2600"/><path d="m313.102 0h15.1992v100h-15.1992z" fill="#9f1f00"/><path d="m323.199 0h15.1992v100h-15.1992z" fill="#9f1800"/><path d="m333.301 0h15.1992v100h-15.1992z" fill="#9e0d00"/><path d="m343.398 0h15.2031v100h-15.2031z" fill="#9e0000"/><path d="m353.5 0h15.1992v100h-15.1992z" fill="#9d0f05"/><path d="m363.602 0h15.1992v100h-15.1992z" fill="#9c1a0a"/><path d="m373.699 0h15.1992v100h-15.1992z" fill="#9b2210"/><path d="m383.801 0h15.1992v100h-15.1992z" fill="#9a2815"/><path d="m393.898 0h15.2031v100h-15.2031z" fill="#982e1b"/><path d="m404 0h15.1992v100h-15.1992z" fill="#97331f"/><path d="m414.102 0h15.1992v100h-15.1992z" fill="#953825"/><path d="m424.199 0h15.1992v100h-15.1992z" fill="#943c2a"/><path d="m434.301 0h15.1992v100h-15.1992z" fill="#92402e"/><path d="m444.398 0h15.2031v100h-15.2031z" fill="#904534"/><path d="m454.5 0h15.1992v100h-15.1992z" fill="#8f4938"/><path d="m464.602 0h15.1992v100h-15.1992z" fill="#8c4d3d"/><path d="m474.699 0h15.1992v100h-15.1992z" fill="#8b5041"/><path d="m484.801 0h15.1992v100h-15.1992z" fill="#885446"/><path d="m494.898 0h15.2031v100h-15.2031z" fill="#85584c"/><path d="m505.102 0h15.1992v100h-15.1992z" fill="#835a50"/><path d="m515.199 0h15.1992v100h-15.1992z" fill="#805e55"/><path d="m525.301 0h15.1992v100h-15.1992z" fill="#7d615a"/><path d="m535.398 0h15.2031v100h-15.2031z" fill="#79645e"/><path d="m545.5 0h15.1992v100h-15.1992z" fill="#766763"/><path d="m555.602 0h15.1992v100h-15.1992z" fill="#726a69"/><path d="m565.699 0h15.1992v100h-15.1992z" fill="#6e6e6e"/><path d="m575.801 0h15.1992v100h-15.1992z" fill="#737373"/><path d="m585.898 0h15.2031v100h-15.2031z" fill="#787878"/><path d="m596 0h15.1992v100h-15.1992z" fill="#7e7e7e"/><path d="m606.102 0h15.1992v100h-15.1992z" fill="#848484"/><path d="m616.199 0h15.1992v100h-15.1992z" fill="#8a8a8a"/><path d="m626.301 0h15.1992v100h-15.1992z" fill="#909090"/><path d="m636.398 0h15.2031v100h-15.2031z" fill="#959595"/><path d="m646.5 0h15.1992v100h-15.1992z" fill="#9b9b9b"/><path d="m656.602 0h15.1992v100h-15.1992z" fill="#a1a1a1"/><path d="m666.699 0h15.1992v100h-15.1992z" fill="#a8a8a8"/><path d="m676.801 0h15.1992v100h-15.1992z" fill="#adadad"/><path d="m686.898 0h15.2031v100h-15.2031z" fill="#b3b3b3"/><path d="m697 0h15.1992v100h-15.1992z" fill="#b9b9b9"/><path d="m707.102 0h15.1992v100h-15.1992z" fill="#bfbfbf"/><path d="m717.199 0h15.1992v100h-15.1992z" fill="#c6c6c6"/><path d="m727.301 0h15.1992v100h-15.1992z" fill="#ccc"/><path d="m737.398 0h15.2031v100h-15.2031z" fill="#d2d2d2"/><path d="m747.5 0h15.1992v100h-15.1992z" fill="#d8d8d8"/><path d="m757.602 0h15.1992v100h-15.1992z" fill="#dfdfdf"/><path d="m767.699 0h15.1992v100h-15.1992z" fill="#e4e4e4"/><path d="m777.801 0h15.1992v100h-15.1992z" fill="#ebebeb"/><path d="m787.898 0h15.2031v100h-15.2031z" fill="#f2f2f2"/><path d="m798 0h15.1992v100h-15.1992z" fill="#f8f8f8"/><path d="m808.102 0h15.1992v100h-15.1992z" fill="#fefefe"/><g fill="#fff"><path d="m818.199 0h15.1992v100h-15.1992z"/><path d="m828.301 0h15.1992v100h-15.1992z"/><path d="m838.398 0h15.2031v100h-15.2031z"/><path d="m848.5 0h15.1992v100h-15.1992z"/><path d="m858.602 0h15.1992v100h-15.1992z"/><path d="m868.699 0h15.1992v100h-15.1992z"/><path d="m878.801 0h15.1992v100h-15.1992z"/><path d="m888.898 0h15.2031v100h-15.2031z"/><path d="m899 0h15.1992v100h-15.1992z"/><path d="m909.102 0h15.1992v100h-15.1992z"/><path d="m919.199 0h15.1992v100h-15.1992z"/><path d="m929.301 0h15.1992v100h-15.1992z"/><path d="m939.398 0h15.2031v100h-15.2031z"/><path d="m949.5 0h15.1992v100h-15.1992z"/><path d="m959.602 0h15.1992v100h-15.1992z"/><path d="m969.699 0h15.1992v100h-15.1992z"/><path d="m979.801 0h15.1992v100h-15.1992z"/><path d="m989.898 0h10.1016v100h-10.1016z"/></g><path d="m0 0h1000v100h-1000z" style="fill:none;stroke:#d3d3d3;stroke-width:1.9;stroke-linecap:round;stroke-linejoin:round;stroke-miterlimit:10"/></g></g><text font-family="StandardSymL" font-size="8.9664" transform="matrix(1 0 0 -1 269.082 30.445)"><tspan x="0" y="0">∞</tspan></text><g clip-path="url(#d)" transform="matrix(1.00003 0 0 1.00003 303.742 29.48)"><g transform="scale(.1)"><path d="m0 0h100v100h-100z" fill="#98ccff"/><path d="m0 0h100v100h-100z" style="fill:none;stroke:#d3d3d3;stroke-width:1.9;stroke-linecap:round;stroke-linejoin:round;stroke-miterlimit:10"/></g></g><g clip-path="url(#e)" transform="matrix(1.00003 0 0 1.00003 330.354 29.48)"><g transform="scale(.1)"><path d="m0 0h100v100h-100z" fill="#98ccff"/><path d="m0 0h100v100h-100z" style="fill:none;stroke:#d3d3d3;stroke-width:1.9;stroke-linecap:round;stroke-linejoin:round;stroke-miterlimit:10"/></g></g><g clip-path="url(#f)" transform="matrix(1.00003 0 0 1.00003 356.145 29.48)"><g transform="scale(.1)"><path d="m0 0h100v100h-100z" fill="#98ccff"/><path d="m0 0h100v100h-100z" style="fill:none;stroke:#d3d3d3;stroke-width:1.9;stroke-linecap:round;stroke-linejoin:round;stroke-miterlimit:10"/></g></g><text font-family="NimbusRomNo9L" font-size="8.9664" transform="matrix(1 0 0 -1 60.452 18.123)"><tspan x="0 6.473741 11.952211 22.16494 26.64814 29.633951 32.12661 36.60981" y="0">DEMprint</tspan></text><g clip-path="url(#g)" transform="matrix(1.00008 0 0 1.00003 143.274 17.157)"><g transform="scale(.1)"><path d="m0 0h15.1992v100h-15.1992z" fill="#346600"/><path d="m10.1016 0h15.1992v100h-15.1992z" fill="#3a6d00"/><path d="m20.1992 0h15.1992v100h-15.1992z" fill="#407400"/><path d="m30.3008 0h15.1992v100h-15.1992z" fill="#467b00"/><path d="m40.3984 0h15.2031v100h-15.2031z" fill="#4c8300"/><path d="m50.5 0h15.1992v100h-15.1992z" fill="#528a00"/><path d="m60.6016 0h15.1992v100h-15.1992z" fill="#599200"/><path d="m70.6992 0h15.1992v100h-15.1992z" fill="#5f9903"/><path d="m80.8008 0h15.1992v100h-15.1992z" fill="#66a105"/><path d="m90.8984 0h15.2031v100h-15.2031z" fill="#6ca809"/><path d="m101 0h15.1992v100h-15.1992z" fill="#72b00b"/><path d="m111.102 0h15.1992v100h-15.1992z" fill="#79b90e"/><path d="m121.199 0h15.1992v100h-15.1992z" fill="#80c111"/><path d="m131.301 0h15.1992v100h-15.1992z" fill="#8ac626"/><path d="m141.398 0h15.2031v100h-15.2031z" fill="#95cb3a"/><path d="m151.5 0h15.1992v100h-15.1992z" fill="#a0d04a"/><path d="m161.602 0h15.1992v100h-15.1992z" fill="#aad559"/><path d="m171.699 0h15.1992v100h-15.1992z" fill="#b5da67"/><path d="m181.801 0h15.1992v100h-15.1992z" fill="#bfdf75"/><path d="m191.898 0h15.2031v100h-15.2031z" fill="#c9e482"/><path d="m202 0h15.1992v100h-15.1992z" fill="#d2e98f"/><path d="m212.102 0h15.1992v100h-15.1992z" fill="#dced9c"/><path d="m222.199 0h15.1992v100h-15.1992z" fill="#e6f3aa"/><path d="m232.301 0h15.1992v100h-15.1992z" fill="#f0f7b7"/><path d="m242.398 0h15.2031v100h-15.2031z" fill="#f9fcc4"/><path d="m252.5 0h15.1992v100h-15.1992z" fill="#fffdc8"/><path d="m262.602 0h15.1992v100h-15.1992z" fill="#fffac3"/><path d="m272.699 0h15.1992v100h-15.1992z" fill="#fff8bd"/><path d="m282.801 0h15.1992v100h-15.1992z" fill="#fff5b7"/><path d="m292.898 0h15.2031v100h-15.2031z" fill="#fff2b2"/><path d="m303 0h15.1992v100h-15.1992z" fill="#fff0ad"/><path d="m313.102 0h15.1992v100h-15.1992z" fill="#ffeda8"/><path d="m323.199 0h15.1992v100h-15.1992z" fill="#ffeaa2"/><path d="m333.301 0h15.1992v100h-15.1992z" fill="#fee79c"/><path d="m343.398 0h15.2031v100h-15.2031z" fill="#fee497"/><path d="m353.5 0h15.1992v100h-15.1992z" fill="#fee291"/><path d="m363.602 0h15.1992v100h-15.1992z" fill="#fddf8c"/><path d="m373.699 0h15.1992v100h-15.1992z" fill="#fddd86"/><path d="m383.801 0h15.1992v100h-15.1992z" fill="#fcda81"/><path d="m393.898 0h15.2031v100h-15.2031z" fill="#fcd77b"/><path d="m404 0h15.1992v100h-15.1992z" fill="#fbd576"/><path d="m414.102 0h15.1992v100h-15.1992z" fill="#fad171"/><path d="m424.199 0h15.1992v100h-15.1992z" fill="#f9cf6b"/><path d="m434.301 0h15.1992v100h-15.1992z" fill="#f8cc66"/><path d="m444.398 0h15.2031v100h-15.2031z" fill="#f8c95e"/><path d="m454.5 0h15.1992v100h-15.1992z" fill="#f7c759"/><path d="m464.602 0h15.1992v100h-15.1992z" fill="#f6c453"/><path d="m474.699 0h15.1992v100h-15.1992z" fill="#f6c24e"/><path d="m484.801 0h15.1992v100h-15.1992z" fill="#f5bf47"/><path d="m494.898 0h15.2031v100h-15.2031z" fill="#f3bd41"/><path d="m505.102 0h15.1992v100h-15.1992z" fill="#e8b13b"/><path d="m515.199 0h15.1992v100h-15.1992z" fill="#dca536"/><path d="m525.301 0h15.1992v100h-15.1992z" fill="#cf9932"/><path d="m535.398 0h15.2031v100h-15.2031z" fill="#c38d2e"/><path d="m545.5 0h15.1992v100h-15.1992z" fill="#b88229"/><path d="m555.602 0h15.1992v100h-15.1992z" fill="#ac7624"/><path d="m565.699 0h15.1992v100h-15.1992z" fill="#a06b1f"/><path d="m575.801 0h15.1992v100h-15.1992z" fill="#95601c"/><path d="m585.898 0h15.2031v100h-15.2031z" fill="#895517"/><path d="m596 0h15.1992v100h-15.1992z" fill="#7e4a13"/><path d="m606.102 0h15.1992v100h-15.1992z" fill="#733f0e"/><path d="m616.199 0h15.1992v100h-15.1992z" fill="#68350a"/><path d="m626.301 0h15.1992v100h-15.1992z" fill="#663309"/><path d="m636.398 0h15.2031v100h-15.2031z" fill="#663308"/><path d="m646.5 0h15.1992v100h-15.1992z" fill="#663307"/><path d="m656.602 0h15.1992v100h-15.1992z" fill="#663306"/><path d="m666.699 0h15.1992v100h-15.1992z" fill="#663304"/><path d="m676.801 0h15.1992v100h-15.1992z" fill="#663304"/><path d="m686.898 0h15.2031v100h-15.2031z" fill="#663303"/><path d="m697 0h15.1992v100h-15.1992z" fill="#663302"/><path d="m707.102 0h15.1992v100h-15.1992z" fill="#663301"/><g fill="#630"><path d="m717.199 0h15.1992v100h-15.1992z"/><path d="m727.301 0h15.1992v100h-15.1992z"/><path d="m737.398 0h15.2031v100h-15.2031z"/></g><path d="m747.5 0h15.1992v100h-15.1992z" fill="#693603"/><path d="m757.602 0h15.1992v100h-15.1992z" fill="#703e0e"/><path d="m767.699 0h15.1992v100h-15.1992z" fill="#764519"/><path d="m777.801 0h15.1992v100h-15.1992z" fill="#7e4c23"/><path d="m787.898 0h15.2031v100h-15.2031z" fill="#85542c"/><path d="m798 0h15.1992v100h-15.1992z" fill="#8b5c36"/><path d="m808.102 0h15.1992v100h-15.1992z" fill="#92643f"/><path d="m818.199 0h15.1992v100h-15.1992z" fill="#986b48"/><path d="m828.301 0h15.1992v100h-15.1992z" fill="#9f7452"/><path d="m838.398 0h15.2031v100h-15.2031z" fill="#a57c5c"/><path d="m848.5 0h15.1992v100h-15.1992z" fill="#ac8466"/><path d="m858.602 0h15.1992v100h-15.1992z" fill="#b28c71"/><path d="m868.699 0h15.1992v100h-15.1992z" fill="#b8957b"/><path d="m878.801 0h15.1992v100h-15.1992z" fill="#be9d85"/><path d="m888.898 0h15.2031v100h-15.2031z" fill="#c5a690"/><path d="m899 0h15.1992v100h-15.1992z" fill="#cbae9a"/><path d="m909.102 0h15.1992v100h-15.1992z" fill="#d0b7a6"/><path d="m919.199 0h15.1992v100h-15.1992z" fill="#d6c0b0"/><path d="m929.301 0h15.1992v100h-15.1992z" fill="#dcc8bb"/><path d="m939.398 0h15.2031v100h-15.2031z" fill="#e3d2c6"/><path d="m949.5 0h15.1992v100h-15.1992z" fill="#e8dad1"/><path d="m959.602 0h15.1992v100h-15.1992z" fill="#eee3dc"/><path d="m969.699 0h15.1992v100h-15.1992z" fill="#f3ece8"/><path d="m979.801 0h15.1992v100h-15.1992z" fill="#f9f5f3"/><path d="m989.898 0h10.1016v100h-10.1016z" fill="#fff"/><path d="m0 0h1000v100h-1000z" style="fill:none;stroke:#d3d3d3;stroke-width:1.9;stroke-linecap:round;stroke-linejoin:round;stroke-miterlimit:10"/></g></g><text font-family="StandardSymL" font-size="8.9664" transform="matrix(1 0 0 -1 269.082 18.123)"><tspan x="0" y="0">∞</tspan></text><g clip-path="url(#h)" transform="matrix(1.00003 0 0 1.00003 303.742 17.157)"><g transform="scale(.1)"><path d="m0 0h100v100h-100z" fill="#346600"/><path d="m0 0h100v100h-100z" style="fill:none;stroke:#d3d3d3;stroke-width:1.9;stroke-linecap:round;stroke-linejoin:round;stroke-miterlimit:10"/></g></g><g clip-path="url(#i)" transform="matrix(1.00003 0 0 1.00003 330.354 17.157)"><g transform="scale(.1)"><path d="m0 0h100v100h-100z" fill="#346600"/><path d="m0 0h100v100h-100z" style="fill:none;stroke:#d3d3d3;stroke-width:1.9;stroke-linecap:round;stroke-linejoin:round;stroke-miterlimit:10"/></g></g><g clip-path="url(#j)" transform="matrix(1.00003 0 0 1.00003 356.145 17.157)"><g transform="scale(.1)"><path d="m0 0h100v100h-100z" fill="#fff"/><path d="m0 0h100v100h-100z" style="fill:none;stroke:#d3d3d3;stroke-width:1.9;stroke-linecap:round;stroke-linejoin:round;stroke-miterlimit:10"/></g></g><text font-family="NimbusRomNo9L" font-size="8.9664" transform="matrix(1 0 0 -1 60.452 5.8)"><tspan x="0 6.473741 11.952211 22.16494 25.65287 29.633951 32.619762 36.600845 40.581928" y="0">DEMscreen</tspan></text><g clip-path="url(#k)" transform="matrix(1.00008 0 0 1.00003 143.274 4.835)"><g transform="scale(.1)"><path d="m0 0h15.1992v100h-15.1992z" fill="#048432"/><path d="m10.1016 0h15.1992v100h-15.1992z" fill="#0b8930"/><path d="m20.1992 0h15.1992v100h-15.1992z" fill="#118f2e"/><path d="m30.3008 0h15.1992v100h-15.1992z" fill="#16952d"/><path d="m40.3984 0h15.2031v100h-15.2031z" fill="#1a9a29"/><path d="m50.5 0h15.1992v100h-15.1992z" fill="#1da026"/><path d="m60.6016 0h15.1992v100h-15.1992z" fill="#22a622"/><path d="m70.6992 0h15.1992v100h-15.1992z" fill="#25ac1e"/><path d="m80.8008 0h15.1992v100h-15.1992z" fill="#28b218"/><path d="m90.8984 0h15.2031v100h-15.2031z" fill="#2cb812"/><path d="m101 0h15.1992v100h-15.1992z" fill="#2ebe05"/><path d="m111.102 0h15.1992v100h-15.1992z" fill="#32c500"/><path d="m121.199 0h15.1992v100h-15.1992z" fill="#35cb00"/><path d="m131.301 0h15.1992v100h-15.1992z" fill="#49cf00"/><path d="m141.398 0h15.2031v100h-15.2031z" fill="#5fd30e"/><path d="m151.5 0h15.1992v100h-15.1992z" fill="#70d51f"/><path d="m161.602 0h15.1992v100h-15.1992z" fill="#80d92a"/><path d="m171.699 0h15.1992v100h-15.1992z" fill="#90dc34"/><path d="m181.801 0h15.1992v100h-15.1992z" fill="#9edf3c"/><path d="m191.898 0h15.2031v100h-15.2031z" fill="#ace245"/><path d="m202 0h15.1992v100h-15.1992z" fill="#bae34c"/><path d="m212.102 0h15.1992v100h-15.1992z" fill="#c7e754"/><path d="m222.199 0h15.1992v100h-15.1992z" fill="#d5ea5c"/><path d="m232.301 0h15.1992v100h-15.1992z" fill="#e2ec62"/><path d="m242.398 0h15.2031v100h-15.2031z" fill="#efef6a"/><path d="m252.5 0h15.1992v100h-15.1992z" fill="#f4ef6d"/><path d="m262.602 0h15.1992v100h-15.1992z" fill="#f4ec6b"/><path d="m272.699 0h15.1992v100h-15.1992z" fill="#f4eb69"/><path d="m282.801 0h15.1992v100h-15.1992z" fill="#f4e867"/><path d="m292.898 0h15.2031v100h-15.2031z" fill="#f5e665"/><path d="m303 0h15.1992v100h-15.1992z" fill="#f5e464"/><path d="m313.102 0h15.1992v100h-15.1992z" fill="#f5e262"/><path d="m323.199 0h15.1992v100h-15.1992z" fill="#f4e061"/><path d="m333.301 0h15.1992v100h-15.1992z" fill="#f5de5e"/><path d="m343.398 0h15.2031v100h-15.2031z" fill="#f4dc5b"/><path d="m353.5 0h15.1992v100h-15.1992z" fill="#f5da5b"/><path d="m363.602 0h15.1992v100h-15.1992z" fill="#f4d858"/><path d="m373.699 0h15.1992v100h-15.1992z" fill="#f4d656"/><path d="m383.801 0h15.1992v100h-15.1992z" fill="#f4d355"/><path d="m393.898 0h15.2031v100h-15.2031z" fill="#f4d152"/><path d="m404 0h15.1992v100h-15.1992z" fill="#f4d051"/><path d="m414.102 0h15.1992v100h-15.1992z" fill="#f5cd4f"/><path d="m424.199 0h15.1992v100h-15.1992z" fill="#f4cc4e"/><path d="m434.301 0h15.1992v100h-15.1992z" fill="#f5c94b"/><path d="m444.398 0h15.2031v100h-15.2031z" fill="#f4c649"/><path d="m454.5 0h15.1992v100h-15.1992z" fill="#f4c548"/><path d="m464.602 0h15.1992v100h-15.1992z" fill="#f3c346"/><path d="m474.699 0h15.1992v100h-15.1992z" fill="#f3c144"/><path d="m484.801 0h15.1992v100h-15.1992z" fill="#f3bf42"/><path d="m494.898 0h15.2031v100h-15.2031z" fill="#f3bd41"/><path d="m505.102 0h15.1992v100h-15.1992z" fill="#f0b940"/><path d="m515.199 0h15.1992v100h-15.1992z" fill="#ecb53f"/><path d="m525.301 0h15.1992v100h-15.1992z" fill="#e8b13e"/><path d="m535.398 0h15.2031v100h-15.2031z" fill="#e4ad3c"/><path d="m545.5 0h15.1992v100h-15.1992z" fill="#e1aa3c"/><path d="m555.602 0h15.1992v100h-15.1992z" fill="#dca63b"/><path d="m565.699 0h15.1992v100h-15.1992z" fill="#d9a23a"/><path d="m575.801 0h15.1992v100h-15.1992z" fill="#d59f39"/><path d="m585.898 0h15.2031v100h-15.2031z" fill="#d19b38"/><path d="m596 0h15.1992v100h-15.1992z" fill="#ce9837"/><path d="m606.102 0h15.1992v100h-15.1992z" fill="#ca9336"/><path d="m616.199 0h15.1992v100h-15.1992z" fill="#c68f35"/><path d="m626.301 0h15.1992v100h-15.1992z" fill="#c28c34"/><path d="m636.398 0h15.2031v100h-15.2031z" fill="#bf8834"/><path d="m646.5 0h15.1992v100h-15.1992z" fill="#bb8532"/><path d="m656.602 0h15.1992v100h-15.1992z" fill="#b78231"/><path d="m666.699 0h15.1992v100h-15.1992z" fill="#b37d31"/><path d="m676.801 0h15.1992v100h-15.1992z" fill="#b07a30"/><path d="m686.898 0h15.2031v100h-15.2031z" fill="#ac772e"/><path d="m697 0h15.1992v100h-15.1992z" fill="#a9732e"/><path d="m707.102 0h15.1992v100h-15.1992z" fill="#a5702c"/><path d="m717.199 0h15.1992v100h-15.1992z" fill="#a16c2b"/><path d="m727.301 0h15.1992v100h-15.1992z" fill="#9e692a"/><path d="m737.398 0h15.2031v100h-15.2031z" fill="#9a6529"/><path d="m747.5 0h15.1992v100h-15.1992z" fill="#9b662e"/><path d="m757.602 0h15.1992v100h-15.1992z" fill="#a06c36"/><path d="m767.699 0h15.1992v100h-15.1992z" fill="#a4723e"/><path d="m777.801 0h15.1992v100h-15.1992z" fill="#aa7846"/><path d="m787.898 0h15.2031v100h-15.2031z" fill="#ae7e4e"/><path d="m798 0h15.1992v100h-15.1992z" fill="#b28457"/><path d="m808.102 0h15.1992v100h-15.1992z" fill="#b78a5f"/><path d="m818.199 0h15.1992v100h-15.1992z" fill="#bb9067"/><path d="m828.301 0h15.1992v100h-15.1992z" fill="#c0976f"/><path d="m838.398 0h15.2031v100h-15.2031z" fill="#c59d78"/><path d="m848.5 0h15.1992v100h-15.1992z" fill="#c9a380"/><path d="m858.602 0h15.1992v100h-15.1992z" fill="#cda988"/><path d="m868.699 0h15.1992v100h-15.1992z" fill="#d1af91"/><path d="m878.801 0h15.1992v100h-15.1992z" fill="#d5b69b"/><path d="m888.898 0h15.2031v100h-15.2031z" fill="#dabda4"/><path d="m899 0h15.1992v100h-15.1992z" fill="#ddc3ad"/><path d="m909.102 0h15.1992v100h-15.1992z" fill="#e1c9b5"/><path d="m919.199 0h15.1992v100h-15.1992z" fill="#e5d0be"/><path d="m929.301 0h15.1992v100h-15.1992z" fill="#e9d6c7"/><path d="m939.398 0h15.2031v100h-15.2031z" fill="#edddd1"/><path d="m949.5 0h15.1992v100h-15.1992z" fill="#f0e3d9"/><path d="m959.602 0h15.1992v100h-15.1992z" fill="#f4eae2"/><path d="m969.699 0h15.1992v100h-15.1992z" fill="#f7f1ec"/><path d="m979.801 0h15.1992v100h-15.1992z" fill="#fbf8f5"/><path d="m989.898 0h10.1016v100h-10.1016z" fill="#fff"/><path d="m0 0h1000v100h-1000z" style="fill:none;stroke:#d3d3d3;stroke-width:1.9;stroke-linecap:round;stroke-linejoin:round;stroke-miterlimit:10"/></g></g><text font-family="StandardSymL" font-size="8.9664" transform="matrix(1 0 0 -1 269.082 5.8)"><tspan x="0" y="0">∞</tspan></text><g clip-path="url(#l)" transform="matrix(1.00003 0 0 1.00003 303.742 4.835)"><g transform="scale(.1)"><path d="m0 0h100v100h-100z" fill="#048433"/><path d="m0 0h100v100h-100z" style="fill:none;stroke:#d3d3d3;stroke-width:1.9;stroke-linecap:round;stroke-linejoin:round;stroke-miterlimit:10"/></g></g><g clip-path="url(#m)" transform="matrix(1.00003 0 0 1.00003 330.354 4.835)"><g transform="scale(.1)"><path d="m0 0h100v100h-100z" fill="#fff"/><path d="m0 0h100v100h-100z" style="fill:none;stroke:#d3d3d3;stroke-width:1.9;stroke-linecap:round;stroke-linejoin:round;stroke-miterlimit:10"/></g></g><g clip-path="url(#n)" transform="matrix(1.00003 0 0 1.00003 356.145 4.835)"><g transform="scale(.1)"><path d="m0 0h100v100h-100z" fill="#048433"/><path d="m0 0h100v100h-100z" style="fill:none;stroke:#d3d3d3;stroke-width:1.9;stroke-linecap:round;stroke-linejoin:round;stroke-miterlimit:10"/></g></g><path d="m0 0h373.766" fill="none" stroke="#000" stroke-miterlimit="10" stroke-width=".797" transform="translate(0 .398)"/></g></g></svg>